<svg id="Layer_1" data-name="Layer 1" xmlns="http://www.w3.org/2000/svg" viewBox="0 0 286.5 182.49"><defs><style>.cls-1{opacity:0.5;}.cls-2{fill:#e9f6fc;}</style></defs><title>bg_figure</title><g class="cls-1"><circle class="cls-2" cx="70.16" cy="1.01" r="0.14"/><path class="cls-2" d="M87.45,1.49A.48.48,0,1,0,87,1,.48.48,0,0,0,87.45,1.49Z"/><circle class="cls-2" cx="104.73" cy="1.01" r="0.81"/><circle class="cls-2" cx="122.02" cy="1.01" r="1.01"/><circle class="cls-2" cx="139.31" cy="1.01" r="1.01"/><circle class="cls-2" cx="156.6" cy="1.01" r="0.86"/><path class="cls-2" d="M173.88,1.64a.62.62,0,1,0-.62-.62A.63.63,0,0,0,173.88,1.64Z"/><circle class="cls-2" cx="191.17" cy="1.01" r="0.24"/><circle class="cls-2" cx="61.51" cy="18.31" r="0.48"/><circle class="cls-2" cx="78.8" cy="18.31" r="1.06"/><circle class="cls-2" cx="96.09" cy="18.31" r="1.63"/><circle class="cls-2" cx="113.38" cy="18.31" r="2.01"/><circle class="cls-2" cx="130.67" cy="18.31" r="2.21"/><circle class="cls-2" cx="147.95" cy="18.31" r="2.25"/><circle class="cls-2" cx="165.24" cy="18.31" r="2.06"/><circle class="cls-2" cx="182.53" cy="18.31" r="1.73"/><circle class="cls-2" cx="199.82" cy="18.31" r="1.29"/><circle class="cls-2" cx="217.11" cy="18.31" r="0.67"/><circle class="cls-2" cx="234.39" cy="18.31" r="0.09"/><circle class="cls-2" cx="35.58" cy="35.61" r="0.62"/><circle class="cls-2" cx="52.87" cy="35.61" r="1.39"/><circle class="cls-2" cx="70.16" cy="35.61" r="2.11"/><circle class="cls-2" cx="87.45" cy="35.61" r="2.78"/><circle class="cls-2" cx="104.73" cy="35.6" r="3.26"/><circle class="cls-2" cx="122.02" cy="35.61" r="3.55"/><circle class="cls-2" cx="139.31" cy="35.61" r="3.6"/><circle class="cls-2" cx="156.6" cy="35.61" r="3.41"/><ellipse class="cls-2" cx="173.88" cy="35.61" rx="2.97" ry="2.98"/><circle class="cls-2" cx="191.17" cy="35.61" r="2.4"/><circle class="cls-2" cx="208.46" cy="35.61" r="1.63"/><circle class="cls-2" cx="225.75" cy="35.61" r="0.86"/><circle class="cls-2" cx="243.04" cy="35.61" r="0.14"/><path class="cls-2" d="M26.94,53.39a.48.48,0,1,0-.48-.48A.48.48,0,0,0,26.94,53.39Z"/><circle class="cls-2" cx="44.23" cy="52.91" r="1.39"/><circle class="cls-2" cx="61.51" cy="52.91" r="2.35"/><circle class="cls-2" cx="78.8" cy="52.91" r="3.21"/><circle class="cls-2" cx="96.09" cy="52.91" r="4.03"/><circle class="cls-2" cx="113.38" cy="52.91" r="4.6"/><circle class="cls-2" cx="130.67" cy="52.91" r="4.94"/><circle class="cls-2" cx="147.95" cy="52.91" r="4.99"/><circle class="cls-2" cx="165.24" cy="52.91" r="4.75"/><circle class="cls-2" cx="182.53" cy="52.91" r="4.22"/><circle class="cls-2" cx="199.81" cy="52.91" r="3.5"/><circle class="cls-2" cx="217.1" cy="52.91" r="2.64"/><circle class="cls-2" cx="234.39" cy="52.91" r="1.68"/><circle class="cls-2" cx="251.68" cy="52.91" r="0.81"/><circle class="cls-2" cx="1.01" cy="70.2" r="0.14"/><circle class="cls-2" cx="18.29" cy="70.2" r="1.06"/><circle class="cls-2" cx="35.58" cy="70.2" r="2.11"/><circle class="cls-2" cx="52.87" cy="70.2" r="3.21"/><circle class="cls-2" cx="70.16" cy="70.2" r="4.27"/><ellipse class="cls-2" cx="87.45" cy="70.2" rx="5.22" ry="5.23"/><circle class="cls-2" cx="104.73" cy="70.21" r="5.9"/><ellipse class="cls-2" cx="122.02" cy="70.2" rx="6.38" ry="6.38"/><circle class="cls-2" cx="139.31" cy="70.2" r="6.47"/><ellipse class="cls-2" cx="156.6" cy="70.2" rx="6.14" ry="6.14"/><circle class="cls-2" cx="173.88" cy="70.2" r="5.47"/><ellipse class="cls-2" cx="191.17" cy="70.21" rx="4.6" ry="4.61"/><circle class="cls-2" cx="208.46" cy="70.21" r="3.6"/><circle class="cls-2" cx="225.75" cy="70.2" r="2.54"/><circle class="cls-2" cx="243.04" cy="70.2" r="1.44"/><circle class="cls-2" cx="260.32" cy="70.21" r="0.43"/><path class="cls-2" d="M9.65,88a.48.48,0,1,0-.48-.48A.48.48,0,0,0,9.65,88Z"/><circle class="cls-2" cx="26.94" cy="87.5" r="1.63"/><circle class="cls-2" cx="44.23" cy="87.5" r="2.78"/><circle class="cls-2" cx="61.51" cy="87.5" r="4.03"/><circle class="cls-2" cx="78.8" cy="87.5" r="5.23"/><ellipse class="cls-2" cx="96.09" cy="87.5" rx="6.33" ry="6.33"/><ellipse class="cls-2" cx="113.38" cy="87.5" rx="7.24" ry="7.24"/><circle class="cls-2" cx="130.67" cy="87.5" r="7.86"/><circle class="cls-2" cx="147.95" cy="87.5" r="7.96"/><ellipse class="cls-2" cx="165.24" cy="87.5" rx="7.48" ry="7.48"/><circle class="cls-2" cx="182.53" cy="87.5" r="6.67"/><ellipse class="cls-2" cx="199.82" cy="87.5" rx="5.56" ry="5.57"/><circle class="cls-2" cx="217.11" cy="87.5" r="4.41"/><ellipse class="cls-2" cx="234.39" cy="87.5" rx="3.21" ry="3.22"/><circle class="cls-2" cx="251.68" cy="87.5" r="2.01"/><circle class="cls-2" cx="268.97" cy="87.5" r="0.82"/><circle class="cls-2" cx="1.01" cy="104.8" r="0.81"/><circle class="cls-2" cx="18.29" cy="104.8" r="2.01"/><circle class="cls-2" cx="35.58" cy="104.8" r="3.26"/><circle class="cls-2" cx="52.87" cy="104.8" r="4.6"/><circle class="cls-2" cx="70.16" cy="104.8" r="5.9"/><circle class="cls-2" cx="87.45" cy="104.8" r="7.24"/><path class="cls-2" d="M96.25,104.8A8.48,8.48,0,0,0,112.93,107a9.29,9.29,0,0,0,10.76,7,10.73,10.73,0,0,0-2.46,3.05,9.37,9.37,0,1,0-6.78,14.33,11.07,11.07,0,0,0-2,2.52,9.48,9.48,0,0,0-17.15,4.38,8,8,0,1,0,0,2.24,9.48,9.48,0,0,0,17.15,4.38,11.07,11.07,0,0,0,2.74,3.17,8.82,8.82,0,1,0,6.27,12.11,9.81,9.81,0,0,0,17.71,1.38,10,10,0,0,0,17.83-.63,9.26,9.26,0,1,0,0-8.48,10,10,0,0,0-2.4-3.23,10,10,0,0,0,11.44-6.55,8.49,8.49,0,1,0,0-6.56,10,10,0,0,0-3.09-4.46A9.78,9.78,0,0,0,174.64,125a8.4,8.4,0,1,0,0-5.71,9.82,9.82,0,0,0-17.33-2.95,11.07,11.07,0,0,0-2.56-2.86,8.83,8.83,0,1,0-6.45-11.63,9.49,9.49,0,0,0-17.73-.74,9.34,9.34,0,0,0-17.65,1.59,8.48,8.48,0,0,0-16.68,2.16Zm34.14,41.78.24.29-.53,0Zm8.93,4.28.53,0a10,10,0,0,0-.64,1,9.83,9.83,0,0,0-.66-1C138.79,150.84,139,150.86,139.31,150.86Zm-18.07-23.71a10.7,10.7,0,0,0,.77,1.22,11,11,0,0,0-1.86.17A9.38,9.38,0,0,0,121.24,127.15ZM119.16,150a11,11,0,0,0,2.86.39,11.13,11.13,0,0,0,1.12-.06,9.82,9.82,0,0,0-1.66,2.84A8.84,8.84,0,0,0,119.16,150Zm29-3.36a11.5,11.5,0,0,0,.69-.93,10.07,10.07,0,0,0,1.08,1.12A10.07,10.07,0,0,0,148.16,146.68Zm8.44-17.31-.39,0a11.06,11.06,0,0,0,1.11-1.49,9.89,9.89,0,0,0,1.64,1.76A10,10,0,0,0,156.6,129.37Zm-5.78-17.92a10.46,10.46,0,0,0-4.51-.25,9.48,9.48,0,0,0,2-3.4A8.83,8.83,0,0,0,150.82,111.46Zm-10.61,2.8a11.09,11.09,0,0,0-1.1,1.29,10.74,10.74,0,0,0-1.27-1.37,9.5,9.5,0,0,0,1.48.13C139.61,114.3,139.91,114.28,140.2,114.26Zm-9.62-5.71a9.51,9.51,0,0,0,2.1,3.05,10.49,10.49,0,0,0-4.32.06A9.36,9.36,0,0,0,130.58,108.54Z"/><ellipse class="cls-2" cx="173.88" cy="104.8" rx="7.72" ry="7.73"/><ellipse class="cls-2" cx="191.17" cy="104.8" rx="6.37" ry="6.38"/><ellipse class="cls-2" cx="208.46" cy="104.8" rx="5.03" ry="5.04"/><circle class="cls-2" cx="225.75" cy="104.8" r="3.74"/><circle class="cls-2" cx="243.04" cy="104.8" r="2.4"/><circle class="cls-2" cx="260.32" cy="104.8" r="1.2"/><circle class="cls-2" cx="277.61" cy="104.8" r="0.14"/><circle class="cls-2" cx="9.65" cy="122.1" r="1.01"/><path class="cls-2" d="M26.94,119.89a2.21,2.21,0,1,0,2.2,2.21A2.21,2.21,0,0,0,26.94,119.89Z"/><circle class="cls-2" cx="44.23" cy="122.1" r="3.55"/><circle class="cls-2" cx="61.51" cy="122.1" r="4.94"/><circle class="cls-2" cx="78.8" cy="122.1" r="6.38"/><path class="cls-2" d="M104,122.1A7.86,7.86,0,1,0,96.09,130,7.87,7.87,0,0,0,104,122.1Z"/><path class="cls-2" d="M192.91,122.1a6.9,6.9,0,1,0,6.9-6.91A6.9,6.9,0,0,0,192.91,122.1Z"/><circle class="cls-2" cx="217.1" cy="122.1" r="5.42"/><circle class="cls-2" cx="234.39" cy="122.1" r="4.03"/><circle class="cls-2" cx="251.68" cy="122.1" r="2.64"/><path class="cls-2" d="M269,120.76a1.34,1.34,0,1,0,1.34,1.34A1.34,1.34,0,0,0,269,120.76Z"/><circle class="cls-2" cx="286.26" cy="122.1" r="0.24"/><circle class="cls-2" cx="1.01" cy="139.4" r="1.01"/><circle class="cls-2" cx="18.29" cy="139.4" r="2.26"/><path class="cls-2" d="M35.58,135.8a3.6,3.6,0,1,0,3.6,3.6A3.6,3.6,0,0,0,35.58,135.8Z"/><circle class="cls-2" cx="52.87" cy="139.4" r="4.99"/><ellipse class="cls-2" cx="70.16" cy="139.4" rx="6.47" ry="6.48"/><ellipse class="cls-2" cx="191.17" cy="139.4" rx="6.95" ry="6.96"/><circle class="cls-2" cx="208.46" cy="139.4" r="5.47"/><circle class="cls-2" cx="225.75" cy="139.4" r="4.07"/><circle class="cls-2" cx="243.04" cy="139.4" r="2.64"/><circle class="cls-2" cx="260.33" cy="139.4" r="1.39"/><circle class="cls-2" cx="277.61" cy="139.4" r="0.29"/><circle class="cls-2" cx="9.65" cy="156.7" r="0.86"/><path class="cls-2" d="M26.94,154.64A2.06,2.06,0,1,0,29,156.7,2.06,2.06,0,0,0,26.94,154.64Z"/><circle class="cls-2" cx="44.23" cy="156.7" r="3.41"/><circle class="cls-2" cx="61.51" cy="156.7" r="4.75"/><ellipse class="cls-2" cx="78.8" cy="156.7" rx="6.14" ry="6.14"/><ellipse class="cls-2" cx="96.09" cy="156.7" rx="7.48" ry="7.49"/><ellipse class="cls-2" cx="182.53" cy="156.7" rx="7.96" ry="7.96"/><circle class="cls-2" cx="199.82" cy="156.7" r="6.57"/><ellipse class="cls-2" cx="217.11" cy="156.7" rx="5.22" ry="5.23"/><circle class="cls-2" cx="234.39" cy="156.7" r="3.84"/><circle class="cls-2" cx="251.68" cy="156.7" r="2.54"/><circle class="cls-2" cx="268.97" cy="156.7" r="1.29"/><circle class="cls-2" cx="286.26" cy="156.7" r="0.19"/><circle class="cls-2" cx="1.01" cy="174" r="0.62"/><circle class="cls-2" cx="18.29" cy="174" r="1.73"/><circle class="cls-2" cx="35.58" cy="174" r="2.97"/><circle class="cls-2" cx="52.87" cy="174" r="4.22"/><circle class="cls-2" cx="70.16" cy="173.99" r="5.47"/><ellipse class="cls-2" cx="87.44" cy="174" rx="6.66" ry="6.67"/><circle class="cls-2" cx="104.73" cy="174" r="7.72"/><circle class="cls-2" cx="122.02" cy="174" r="8.39"/><ellipse class="cls-2" cx="139.31" cy="174" rx="8.48" ry="8.49"/><circle class="cls-2" cx="156.6" cy="174" r="7.96"/><circle class="cls-2" cx="173.88" cy="174" r="7.05"/><circle class="cls-2" cx="191.17" cy="173.99" r="5.85"/><ellipse class="cls-2" cx="208.46" cy="174" rx="4.65" ry="4.65"/><circle class="cls-2" cx="225.75" cy="174" r="3.4"/><circle class="cls-2" cx="243.04" cy="173.99" r="2.11"/><circle class="cls-2" cx="260.32" cy="174" r="1"/></g></svg>