<svg id="Layer_1" data-name="Layer 1" xmlns="http://www.w3.org/2000/svg" xmlns:xlink="http://www.w3.org/1999/xlink" viewBox="0 0 429.08 429.08"><defs><style>.cls-1{fill:none;}.cls-2{fill:#fff;}.cls-3{isolation:isolate;fill:url(#New_Pattern);}</style><pattern id="New_Pattern" data-name="New Pattern" width="691.5" height="479.14" patternTransform="matrix(0.36, 0, 0, -0.36, -116.56, 548.54)" patternUnits="userSpaceOnUse" viewBox="0 0 691.5 479.14"><rect class="cls-1" width="691.5" height="479.14"/><rect class="cls-1" width="691.5" height="479.14"/><path class="cls-2" d="M601.68-11.86,528.25-85.29a17.29,17.29,0,0,0-24.45-.57,17.29,17.29,0,0,0-.57,24.45l.57.57,73.43,73.43a17.29,17.29,0,0,0,24.44-24.45ZM596.87,7.78a10.5,10.5,0,0,1-14.83,0L508.61-65.65a10.49,10.49,0,0,1-.92-13.75,13.85,13.85,0,0,0,4,10.64l37,37,11.72-11.72L596.89-7a10.5,10.5,0,0,1,0,14.83Z"/><path class="cls-2" d="M705.2,179.69v25h25a15.87,15.87,0,0,1,0,31.74h-25v25a15.87,15.87,0,0,1-31.74,0v-25h-25a15.87,15.87,0,0,1,0-31.74h25v-25a15.87,15.87,0,0,1,31.74,0Zm-28.34,49.92a3.4,3.4,0,0,1,3.4,3.4h0v28.38a9.07,9.07,0,0,0,18.13.6q0-.3,0-.6V233a3.4,3.4,0,0,1,3.4-3.4h28.38a9.07,9.07,0,0,0,0-18.14H701.8a3.4,3.4,0,0,1-3.4-3.4h0V179.69a9.07,9.07,0,0,0-18.13-.6q0,.3,0,.6v28.38a3.4,3.4,0,0,1-3.4,3.4H648.48a9.07,9.07,0,1,0,0,18.14h28.38Z"/><path class="cls-2" d="M717.84-5.28a40.31,40.31,0,0,0-57,0c-17.19,17.19-17.2,39.56,0,57a138,138,0,0,1,25.41,36.82,3.4,3.4,0,0,0,3.12,2h0a3.4,3.4,0,0,0,3.12-2A138.44,138.44,0,0,1,717.9,51.72C735,34.29,735,11.91,717.84-5.28ZM713,47a144.45,144.45,0,0,0-23.69,32.56A144.47,144.47,0,0,0,665.62,47c-17.36-17.62-11.39-36,0-47.43a33.52,33.52,0,0,1,47.4,0h0C724.41,10.9,730.38,29.33,713,47Z"/><path class="cls-2" d="M580.22,136.8c1.31,19.57,1.39,39.63-17.49,58.51a3.4,3.4,0,0,1-4.81-4.81,56.93,56.93,0,0,0,8.3-10.39L555.8,169.69a3.4,3.4,0,1,1,4.81-4.81l8.9,8.9a49.87,49.87,0,0,0,2.69-8.15L561,154.39a3.4,3.4,0,1,1,4.81-4.81l7.8,7.8a128.47,128.47,0,0,0-.19-21.06c-2.93-.2-5.83-.38-8.71-.47l3,3a3.4,3.4,0,1,1-4.81,4.81h0l-7.72-7.72a63.45,63.45,0,0,0-10.92,1.53l8.21,8.21a3.4,3.4,0,1,1-4.81,4.81h0L537,139.78a48.81,48.81,0,0,0-8.19,4.26l12.67,12.67a3.4,3.4,0,1,1-4.81,4.81h0l-13.45-13.38c-1.34,1.12-2.67,2.33-4,3.66a3.4,3.4,0,0,1-4.81-4.81c18.89-18.88,39-18.8,58.51-17.49-1.33-19.45-1.62-39.4,16.89-57.91a3.4,3.4,0,1,1,4.81,4.81,54.27,54.27,0,0,0-8.12,10.23l.17.14,15.54,15.54a3.4,3.4,0,1,1-4.81,4.81L583.23,92.94a49.12,49.12,0,0,0-2.6,8.27l.1.08,9,9a3.4,3.4,0,1,1-4.81,4.81h0l-5.54-5.54a136.62,136.62,0,0,0,.32,20.37c2.65.19,5.27.35,7.88.46L584.21,127a3.4,3.4,0,1,1,4.79-4.78l8.22,8.22a64.6,64.6,0,0,0,11.07-1.38L598.23,119a3.4,3.4,0,0,1,4.81-4.81l12.26,12.26a3.18,3.18,0,0,1,.33.4,47.09,47.09,0,0,0,8.31-4.21L609.27,108a3.4,3.4,0,1,1,4.81-4.81l15.4,15.4c1.27-1.07,2.54-2.22,3.8-3.48a3.4,3.4,0,0,1,4.81,4.81C619.62,138.42,599.66,138.14,580.22,136.8Z"/><path class="cls-2" d="M359.45-59.86v25h25A15.87,15.87,0,0,1,400.31-19,15.87,15.87,0,0,1,384.45-3.12h-25v25a15.87,15.87,0,0,1-31.74,0v-25h-25A15.87,15.87,0,0,1,286.85-19a15.87,15.87,0,0,1,15.86-15.86h25v-25a15.87,15.87,0,0,1,15.86-15.88,15.87,15.87,0,0,1,15.88,15.86ZM331.11-10a3.4,3.4,0,0,1,3.4,3.4V21.82a9.07,9.07,0,0,0,18.13.6q0-.3,0-.6V-6.56A3.4,3.4,0,0,1,356-10h28.38A9.07,9.07,0,0,0,393.48-19a9.07,9.07,0,0,0-9.06-9.06H356a3.4,3.4,0,0,1-3.4-3.4V-59.86a9.07,9.07,0,0,0-8.76-9.37,9.07,9.07,0,0,0-9.37,8.76q0,.3,0,.6V-31.5a3.4,3.4,0,0,1-3.4,3.4H302.73A9.07,9.07,0,0,0,293.67-19,9.07,9.07,0,0,0,302.73-10Z"/><path class="cls-2" d="M185.15-18V40.14a32.49,32.49,0,0,1-64.82,3.24,32.49,32.49,0,0,1,3.24-64.83h58.18a3.4,3.4,0,0,1,3.4,3.4ZM123.56,36.74A3.4,3.4,0,0,1,127,40.1v0a25.69,25.69,0,0,0,51.38,0V-14.64H123.57a25.69,25.69,0,1,0,0,51.38Z"/><path class="cls-2" d="M171.69,37.74a3.4,3.4,0,0,0-5.8,2.41,13.22,13.22,0,0,1-22.57,9.35,3.4,3.4,0,1,0-4.81,4.81,20,20,0,0,0,34.17-14.17A3.38,3.38,0,0,0,171.69,37.74Z"/><path class="cls-2" d="M13.7,179.69v25h25a15.87,15.87,0,1,1,0,31.74h-25v25A15.89,15.89,0,0,1-2.17,277.26,15.89,15.89,0,0,1-18,261.39v-25H-43a15.89,15.89,0,0,1-15.89-15.85A15.89,15.89,0,0,1-43,204.67h25v-25A15.89,15.89,0,0,1-2.17,163.82,15.89,15.89,0,0,1,13.7,179.69Zm-28.34,49.92a3.4,3.4,0,0,1,3.4,3.4v28.38a9.08,9.08,0,0,0,9.07,9.07,9.08,9.08,0,0,0,9.07-9.07V233a3.4,3.4,0,0,1,3.4-3.4H38.68a9.07,9.07,0,0,0,0-18.14H10.3a3.4,3.4,0,0,1-3.4-3.4V179.69a9.08,9.08,0,0,0-9.07-9.07,9.08,9.08,0,0,0-9.07,9.07v28.38a3.4,3.4,0,0,1-3.4,3.4H-43a9.08,9.08,0,0,0-9.07,9.07A9.08,9.08,0,0,0-43,229.61Z"/><path class="cls-2" d="M26.34-5.28A40.05,40.05,0,0,0-2.17-17.09,40.05,40.05,0,0,0-30.68-5.28c-17.19,17.19-17.2,39.56,0,57A138,138,0,0,1-5.29,88.54a3.4,3.4,0,0,0,3.12,2h0a3.4,3.4,0,0,0,3.12-2A138.44,138.44,0,0,1,26.36,51.72C43.54,34.29,43.54,11.91,26.34-5.28ZM21.51,47A144.45,144.45,0,0,0-2.17,79.52,144.47,144.47,0,0,0-25.86,47c-17.36-17.62-11.39-36,0-47.43A33.31,33.31,0,0,1-2.15-10.29,33.31,33.31,0,0,1,21.55-.47c11.36,11.37,17.33,29.8,0,47.42Z"/><path class="cls-2" d="M18.29,43.77a3.4,3.4,0,1,1-5-4.59l.17-.18c13.62-13.82,5.89-25.64.08-31.46a3.4,3.4,0,0,1,4.81-4.81h0C23.1,7.51,37.2,24.57,18.29,43.77Z"/><path class="cls-2" d="M136.74,130.43c-1.9-27.65-22-48.51-46.75-48.51s-44.85,20.85-46.75,48.51c-.91,13.28,1.5,23.09,7.15,29.14,4.24,4.55,10.1,6.85,17.39,6.85,8.21,0,16.37-2.91,22.2-5.63,5.83,2.72,14,5.63,22.2,5.63,7.3,0,13.15-2.31,17.4-6.85C135.25,153.52,137.65,143.71,136.74,130.43Zm-12.12,24.5c-2.91,3.11-7.09,4.69-12.43,4.69-5.95,0-13.3-2-20.69-5.65a3.4,3.4,0,0,0-3,0c-7.39,3.64-14.74,5.65-20.7,5.65-5.34,0-9.52-1.58-12.43-4.69-4.32-4.62-6.12-12.71-5.34-24C51.7,106.5,68.51,88.76,90,88.76s38.29,17.74,40,42.17C130.73,142.22,128.94,150.31,124.62,154.93Z"/><path class="cls-2" d="M87.59,170.58a19.54,19.54,0,0,0,23.19,23.18,3.4,3.4,0,0,0,2.62-2.62,19.53,19.53,0,0,0-19.1-23.61h0a19.69,19.69,0,0,0-4.08.43A3.39,3.39,0,0,0,87.59,170.58ZM94,174.34a12.72,12.72,0,0,1,13,12.43q0,.31,0,.62A12.72,12.72,0,0,1,94,175Q94,174.65,94,174.34Z"/><path class="cls-2" d="M601.68,467.33,528.25,393.9a17.29,17.29,0,0,0-24.44,24.45l73.43,73.43a17.29,17.29,0,1,0,24.44-24.45ZM596.87,487A10.5,10.5,0,0,1,582,487l-73.42-73.43a10.49,10.49,0,0,1-.92-13.75,13.85,13.85,0,0,0,4,10.64l37,37,11.72-11.72,36.45,36.43A10.5,10.5,0,0,1,596.87,487Z"/><path class="cls-2" d="M660.63,345.14H637.08a3.4,3.4,0,0,1-3.08-2l-7.28-15.55-6.12,36.29a3.4,3.4,0,0,1-3.16,2.83,3.36,3.36,0,0,1-3.46-2.45l-13-45-12.43,56.18a3.4,3.4,0,0,1-6.54.35l-10.29-30.65H559.66a47.18,47.18,0,0,0,93.22,6.8h6.93a54,54,0,0,1-107.06-9.8c0-1.27.06-2.52.15-3.76h21.27a3.4,3.4,0,0,1,3.22,2.32L584.55,362l12.65-57.18a3.4,3.4,0,0,1,3.21-2.66h.11a3.4,3.4,0,0,1,3.26,2.46l12.59,43.48,5.46-32.34a3.4,3.4,0,0,1,6.43-.88l11,23.46h14.52a47.17,47.17,0,0,0-93-6.8h-7a54,54,0,0,1,106.94,10.56Q660.72,343.64,660.63,345.14Z"/><path class="cls-2" d="M717.84,473.86a40.32,40.32,0,0,0-57,0c-17.19,17.19-17.2,39.56,0,57a138,138,0,0,1,25.41,36.82,3.4,3.4,0,0,0,3.12,2h0a3.4,3.4,0,0,0,3.12-2,138.44,138.44,0,0,1,25.41-36.82C735,513.43,735,491.05,717.84,473.86ZM713,526.14a144.45,144.45,0,0,0-23.69,32.56,144.47,144.47,0,0,0-23.67-32.56c-17.36-17.62-11.39-36,0-47.43a33.51,33.51,0,0,1,47.36,0C724.41,490,730.38,508.47,713,526.14Z"/><path class="cls-2" d="M530.9,221.53v58.19A32.49,32.49,0,0,1,466.08,283a32.49,32.49,0,0,1,3.24-64.82H527.5a3.4,3.4,0,0,1,3.4,3.4h0Zm-61.59,54.78a3.4,3.4,0,0,1,3.4,3.4,25.69,25.69,0,0,0,51.38,0V224.93H469.32a25.69,25.69,0,0,0,0,51.38Z"/><path class="cls-2" d="M517.44,277.31a3.4,3.4,0,0,0-5.8,2.41,13.22,13.22,0,0,1-22.57,9.35,3.4,3.4,0,0,0-4.81,4.81,20,20,0,0,0,34.18-14.16A3.38,3.38,0,0,0,517.44,277.31Z"/><path class="cls-2" d="M255.93,227.76,182.5,154.33a17.29,17.29,0,1,0-25,23.88l.57.57,73.43,73.43a17.29,17.29,0,0,0,24.74-24.16l-.29-.29Zm-4.81,19.64a10.5,10.5,0,0,1-14.83,0L162.86,174a10.49,10.49,0,0,1-.92-13.75,13.85,13.85,0,0,0,4,10.64l37,37,11.7-11.72,36.48,36.48A10.5,10.5,0,0,1,251.12,247.4Z"/><path class="cls-2" d="M359.45,419.26v25h25a15.87,15.87,0,0,1,0,31.74h-25v25a15.87,15.87,0,1,1-31.74,0V476h-25a15.87,15.87,0,0,1,0-31.74h25v-25a15.87,15.87,0,0,1,31.74,0Zm-28.34,49.88a3.4,3.4,0,0,1,3.4,3.4V501a9.07,9.07,0,0,0,18.14,0V472.58a3.4,3.4,0,0,1,3.35-3.44h28.38a9.07,9.07,0,1,0,0-18.14H356a3.4,3.4,0,0,1-3.4-3.4V419.26a9.07,9.07,0,0,0-18.13-.6q0,.3,0,.6v28.39a3.4,3.4,0,0,1-3.4,3.4H302.73a9.07,9.07,0,1,0,0,18.14h0Z"/><path class="cls-2" d="M453.2,164.91a3.4,3.4,0,0,0-4.81,0h0l-7.69,7.69-5.7-5.71,12.47-12.48a3.4,3.4,0,0,0,0-4.81h0L397.87,100a3.4,3.4,0,0,0-4.81,0h0l-4.27,4.27L378.2,93.68a3.4,3.4,0,0,0-4.81,0h0l-5.8,5.8L352.21,84.14A3.4,3.4,0,0,0,347.4,89l15.38,15.38L357,110.14a3.4,3.4,0,0,0,0,4.81h0l10.59,10.59-4.27,4.26a3.4,3.4,0,0,0,0,4.81h0l24.79,24.79h0l24.8,24.74a3.39,3.39,0,0,0,4.79,0l0,0,12.47-12.47,5.71,5.71-7.69,7.76A3.4,3.4,0,1,0,433,190h0l20.18-20.18a3.43,3.43,0,0,0,0-4.83ZM384,109.08l-11.61,11.61-8.19-8.19,11.61-11.61ZM440.27,152l-25,25-8.7-8.7,12.47-12.47a3.4,3.4,0,0,0-4.81-4.81L401.8,163.45,395.32,157l12.47-12.47a3.4,3.4,0,0,0-4.81-4.81l-12.47,12.45L384,145.68l12.47-12.48a3.4,3.4,0,0,0-4.81-4.81l-12.47,12.48-8.7-8.7,25-25Z"/><path class="cls-2" d="M514.38,71.69a13.17,13.17,0,0,0,2.08-15.88l.83-.83a27.87,27.87,0,0,0-39.41-39.41l-15,15a35.08,35.08,0,0,0-46.55,2.67L406,43.53l-3.67-3.67a3.4,3.4,0,0,0-4.81,4.81l6.07,6.07a3.4,3.4,0,0,0,4.81,0h0l12.68-12.69A28.23,28.23,0,1,1,461,78L448.32,90.67a3.4,3.4,0,0,0,0,4.81h0l6.06,6.06a3.4,3.4,0,0,0,4.81-4.81h0l-3.66-3.66,10.28-10.28a35.08,35.08,0,0,0,1.89-47.48l15-15a21.08,21.08,0,1,1,29.84,29.78h0l-.83.83a13.15,13.15,0,1,0,2.73,20.69Zm-4.81-4.81a6.36,6.36,0,1,1,0-9,6.36,6.36,0,0,1,0,9Z"/><path class="cls-2" d="M314.88,105.58H291.33a3.4,3.4,0,0,1-3.08-2L281,88.07l-6.12,36.29a3.4,3.4,0,0,1-3.16,2.83,3.36,3.36,0,0,1-3.46-2.45l-13-45L242.8,135.87a3.4,3.4,0,0,1-6.54.35L226,105.58H213.91a47.18,47.18,0,0,0,93.22,6.8h6.93A54,54,0,0,1,207,102.54c0-1.27.06-2.52.15-3.76h21.27a3.4,3.4,0,0,1,3.22,2.32l7.16,21.34,12.65-57.18a3.4,3.4,0,0,1,3.21-2.66h.11A3.4,3.4,0,0,1,258,65l12.58,43.49L276,76.19a3.4,3.4,0,0,1,6.43-.88l11,23.46H308A47.17,47.17,0,0,0,215,92h-7a54,54,0,0,1,107,10.57C315,103.56,314.94,104.57,314.88,105.58Z"/><path class="cls-2" d="M372.09,234.29a40.31,40.31,0,0,0-57,0c-17.19,17.19-17.2,39.56,0,57a138,138,0,0,1,25.37,36.85,3.4,3.4,0,0,0,3.12,2h0a3.4,3.4,0,0,0,3.12-2,138.44,138.44,0,0,1,25.41-36.82C389.29,273.86,389.29,251.48,372.09,234.29Zm-4.83,52.23a144.45,144.45,0,0,0-23.69,32.56,144.47,144.47,0,0,0-23.69-32.56c-17.36-17.62-11.39-36.05,0-47.43a33.52,33.52,0,0,1,47.4,0h0c11.37,11.38,17.34,29.81,0,47.44Z"/><path class="cls-2" d="M364,283.34a3.4,3.4,0,0,1-5-4.59l.17-.18c13.62-13.82,5.89-25.64.08-31.46A3.4,3.4,0,0,1,364,242.3C368.85,247.08,383,264.14,364,283.34Z"/><path class="cls-2" d="M234.47,376.37c1.31,19.57,1.39,39.63-17.49,58.51a3.4,3.4,0,1,1-4.81-4.81,56.93,56.93,0,0,0,8.3-10.39L210,409.27a3.4,3.4,0,1,1,4.81-4.81l8.9,8.9a49.87,49.87,0,0,0,2.69-8.15L215.2,394a3.4,3.4,0,0,1,4.8-4.82l7.8,7.8a128.47,128.47,0,0,0-.19-21.06c-2.93-.2-5.83-.38-8.71-.47l3,3a3.4,3.4,0,0,1-4.81,4.81h0l-7.72-7.72A63.45,63.45,0,0,0,198.45,377l8.21,8.21a3.4,3.4,0,1,1-4.81,4.81l-10.71-10.72a48.8,48.8,0,0,0-8.14,4.26l12.67,12.67a3.4,3.4,0,1,1-4.81,4.81h0l-13.44-13.39c-1.34,1.12-2.67,2.33-4,3.66a3.4,3.4,0,1,1-4.81-4.81h0c18.89-18.88,38.95-18.8,58.51-17.49-1.32-19.45-1.61-39.4,16.88-57.9a3.4,3.4,0,0,1,4.81,4.81,54.27,54.27,0,0,0-8.09,10.19l.17.14,15.54,15.54a3.4,3.4,0,0,1-4.81,4.81h0L237.49,332.5a49.12,49.12,0,0,0-2.6,8.27l.1.08,9,9a3.4,3.4,0,1,1-4.81,4.81h0l-5.52-5.52a136.62,136.62,0,0,0,.32,20.37c2.65.19,5.27.35,7.88.46l-3.37-3.37a3.4,3.4,0,1,1,4.81-4.81l8.22,8.22a64.61,64.61,0,0,0,11.07-1.38l-10.06-10.06a3.4,3.4,0,1,1,4.81-4.81h0L269.6,366a3.19,3.19,0,0,1,.33.4,47.08,47.08,0,0,0,8.31-4.21l-14.67-14.67a3.4,3.4,0,0,1,4.81-4.81l15.4,15.4c1.27-1.07,2.54-2.22,3.8-3.48a3.4,3.4,0,1,1,4.81,4.81C273.87,378,253.91,377.71,234.47,376.37Z"/><path class="cls-2" d="M482.49,370c-1.9-27.65-22-48.51-46.75-48.51S390.89,342.35,389,370c-.91,13.28,1.5,23.14,7.15,29.14,4.24,4.55,10.1,6.85,17.39,6.85,8.21,0,16.37-2.91,22.2-5.63,5.83,2.72,14,5.63,22.2,5.63,7.3,0,13.15-2.31,17.4-6.85C481,393.09,483.4,383.28,482.49,370Zm-12.12,24.5c-2.91,3.11-7.09,4.69-12.43,4.69-6,0-13.3-2-20.69-5.65a3.4,3.4,0,0,0-3,0c-7.39,3.64-14.74,5.65-20.7,5.65-5.34,0-9.52-1.58-12.43-4.69-4.32-4.62-6.12-12.71-5.34-24,1.67-24.43,18.48-42.17,40-42.17s38.29,17.74,40,42.17C476.48,381.79,474.69,389.88,470.37,394.5Z"/><path class="cls-2" d="M433.34,410.14a19.54,19.54,0,0,0,23.19,23.2,3.4,3.4,0,0,0,2.62-2.62A19.53,19.53,0,0,0,440,407.14h0a19.69,19.69,0,0,0-4.08.43A3.39,3.39,0,0,0,433.34,410.14Zm6.37,3.76a12.72,12.72,0,0,1,13.06,12.37q0,.34,0,.68a12.72,12.72,0,0,1-13.06-12.37Q439.7,414.24,439.71,413.9Z"/><path class="cls-2" d="M185.15,461.14v58.15a32.51,32.51,0,0,1-64.85,3.24,32.52,32.52,0,0,1,3.26-64.88h58.18a3.4,3.4,0,0,1,3.4,3.4Zm-61.58,54.75a3.4,3.4,0,0,1,3.4,3.4h0a25.7,25.7,0,0,0,51.39,0V464.51H123.57a25.69,25.69,0,0,0,0,51.38Z"/><path class="cls-2" d="M107.45,404.49a3.4,3.4,0,0,0-4.81,0h0L95,412.14l-5.71-5.71L101.76,394a3.4,3.4,0,0,0,0-4.81h0l-49.6-49.6a3.4,3.4,0,0,0-4.81,0h0l-4.27,4.27L32.46,333.26a3.4,3.4,0,0,0-4.81,0h0l-5.8,5.8L6.46,323.68a3.4,3.4,0,0,0-4.81,4.81L17,343.87l-5.81,5.8a3.4,3.4,0,0,0,0,4.81h0l10.59,10.59-4.27,4.26a3.4,3.4,0,0,0,0,4.81h0l24.84,24.8h0l24.81,24.8a3.4,3.4,0,0,0,4.81,0h0l12.47-12.47L90.15,417l-7.68,7.69a3.4,3.4,0,1,0,4.81,4.81l20.18-20.18a3.4,3.4,0,0,0,0-4.81ZM38.24,348.66,26.63,360.27l-8.19-8.19L30,340.47Zm56.27,42.92-25,24.95-8.7-8.7,12.47-12.47a3.4,3.4,0,1,0-4.81-4.81L56,403l-6.43-6.48L62,384.07a3.4,3.4,0,1,0-4.81-4.81L44.76,391.73l-6.48-6.48,12.47-12.48A3.4,3.4,0,0,0,45.94,368L33.47,380.45l-8.7-8.7,25-24.95Z"/><path class="cls-2" d="M168.63,311.26a13.17,13.17,0,0,0,2.08-15.88l.83-.83a27.87,27.87,0,0,0-38.84-40l-.57.57-15,15a35.08,35.08,0,0,0-46.55,2.67l-10.3,10.33-3.67-3.67a3.4,3.4,0,1,0-4.81,4.81l6.07,6.07a3.4,3.4,0,0,0,4.81,0h0l12.68-12.69a28.23,28.23,0,1,1,39.93,39.93h0l-12.68,12.68a3.4,3.4,0,0,0,0,4.81h0l6.06,6.06a3.4,3.4,0,0,0,4.81-4.81l-3.66-3.66,10.28-10.28a35.08,35.08,0,0,0,1.9-47.5l14.95-14.95a21.07,21.07,0,0,1,29.8,29.79l-.83.83a13.15,13.15,0,1,0,2.73,20.69Zm-4.81-4.81a6.36,6.36,0,1,1,0-9,6.36,6.36,0,0,1,0,9Z"/><path class="cls-2" d="M26.34,473.86A40.05,40.05,0,0,0-2.17,462.05a40.05,40.05,0,0,0-28.51,11.81c-17.19,17.19-17.2,39.56,0,57A138,138,0,0,1-5.29,567.69a3.4,3.4,0,0,0,3.12,2h0a3.4,3.4,0,0,0,3.12-2,138.44,138.44,0,0,1,25.41-36.82C43.54,513.43,43.54,491.05,26.34,473.86Zm-4.82,52.28A144.45,144.45,0,0,0-2.17,558.66a144.47,144.47,0,0,0-23.69-32.52c-17.35-17.67-11.39-36.1,0-47.47a33.31,33.31,0,0,1,23.7-9.82,33.31,33.31,0,0,1,23.71,9.82C32.91,490,38.88,508.47,21.52,526.14Z"/></pattern></defs><title>bg_medical2</title><rect class="cls-3" width="429.08" height="429.08"/></svg>