<svg id="Layer_1" data-name="Layer 1" xmlns="http://www.w3.org/2000/svg" xmlns:xlink="http://www.w3.org/1999/xlink" viewBox="0 0 429.08 429.08"><defs><style>.cls-1{fill:none;}.cls-2{fill:#fff;}.cls-3{opacity:0.1;fill:url(#New_Pattern);}</style><pattern id="New_Pattern" data-name="New Pattern" width="691.5" height="479.14" patternTransform="translate(-1.56 -463.54) scale(0.36)" patternUnits="userSpaceOnUse" viewBox="0 0 691.5 479.14"><rect class="cls-1" width="691.5" height="479.14"/><path class="cls-2" d="M601.68,491l-73.43,73.43a17.29,17.29,0,1,1-24.44-24.45l73.43-73.43A17.29,17.29,0,0,1,601.68,491Zm-4.81-19.64a10.5,10.5,0,0,0-14.83,0l-73.43,73.43a10.49,10.49,0,0,0-.92,13.75,13.85,13.85,0,0,1,4-10.64l37-37,11.72,11.72,36.48-36.48A10.5,10.5,0,0,0,596.87,471.31Z"/><path class="cls-2" d="M705.2,299.45v-25h25a15.87,15.87,0,1,0,0-31.74h-25v-25a15.87,15.87,0,0,0-31.74,0v25h-25a15.87,15.87,0,1,0,0,31.74h25v25a15.87,15.87,0,0,0,31.74,0Zm-28.34-49.92a3.4,3.4,0,0,0,3.4-3.4V217.75a9.07,9.07,0,1,1,18.13,0v28.38a3.4,3.4,0,0,0,3.4,3.4h28.38a9.07,9.07,0,1,1,0,18.14H701.8a3.4,3.4,0,0,0-3.4,3.4v28.38a9.07,9.07,0,1,1-18.13,0V271.07a3.4,3.4,0,0,0-3.4-3.4H648.48a9.07,9.07,0,1,1,0-18.14Z"/><path class="cls-2" d="M717.84,484.42a40.31,40.31,0,0,1-57,0c-17.19-17.19-17.2-39.56,0-57a138,138,0,0,0,25.41-36.82,3.4,3.4,0,0,1,3.12-2h0a3.4,3.4,0,0,1,3.12,2,138.44,138.44,0,0,0,25.41,36.82C735,444.85,735,467.23,717.84,484.42ZM713,432.19a144.45,144.45,0,0,1-23.69-32.56,144.47,144.47,0,0,1-23.69,32.56c-17.36,17.62-11.39,36.05,0,47.43a33.52,33.52,0,0,0,47.41,0C724.41,468.24,730.38,449.81,713,432.19Z"/><path class="cls-2" d="M580.22,342.34c1.31-19.57,1.39-39.63-17.49-58.51a3.4,3.4,0,0,0-4.81,4.81,56.93,56.93,0,0,1,8.3,10.39l-10.42,10.42a3.4,3.4,0,0,0,4.81,4.81l8.9-8.9a49.87,49.87,0,0,1,2.69,8.15L561,324.75a3.4,3.4,0,0,0,4.81,4.81l7.8-7.8a128.47,128.47,0,0,1-.19,21.06c-2.93.2-5.83.38-8.71.47l3-3a3.4,3.4,0,1,0-4.81-4.81l-7.72,7.72a63.45,63.45,0,0,1-10.92-1.53l8.21-8.21a3.4,3.4,0,0,0-4.81-4.81l-10.71,10.71a48.81,48.81,0,0,1-8.19-4.26l12.67-12.67a3.4,3.4,0,0,0-4.81-4.81L523.17,331c-1.34-1.12-2.67-2.33-4-3.66a3.4,3.4,0,0,0-4.81,4.81c18.89,18.88,38.95,18.8,58.51,17.49-1.33,19.45-1.62,39.4,16.89,57.91a3.4,3.4,0,0,0,4.81-4.81,54.27,54.27,0,0,1-8.12-10.23l.17-.14,15.54-15.54a3.4,3.4,0,1,0-4.81-4.81L583.23,386.2a49.12,49.12,0,0,1-2.6-8.27l.1-.08,9-9a3.4,3.4,0,0,0-4.81-4.81l-5.54,5.54a136.62,136.62,0,0,1,.32-20.37c2.65-.19,5.27-.35,7.88-.46l-3.37,3.37A3.4,3.4,0,1,0,589,356.9l8.22-8.22a64.6,64.6,0,0,1,11.07,1.38l-10.06,10.06a3.4,3.4,0,1,0,4.81,4.81l12.26-12.26a3.18,3.18,0,0,0,.33-.4,47.09,47.09,0,0,1,8.31,4.21l-14.67,14.67a3.4,3.4,0,0,0,4.81,4.81l15.4-15.4c1.27,1.07,2.54,2.22,3.8,3.48a3.4,3.4,0,0,0,4.81-4.81C619.62,340.72,599.66,341,580.22,342.34Z"/><path class="cls-2" d="M359.45,539V514h25a15.87,15.87,0,0,0,0-31.74h-25v-25a15.87,15.87,0,0,0-31.74,0v25h-25a15.87,15.87,0,0,0,0,31.74h25v25a15.87,15.87,0,1,0,31.74,0ZM331.11,489.1a3.4,3.4,0,0,0,3.4-3.4V457.32a9.07,9.07,0,1,1,18.13,0V485.7a3.4,3.4,0,0,0,3.4,3.4h28.38a9.07,9.07,0,0,1,0,18.14H356a3.4,3.4,0,0,0-3.4,3.4V539a9.07,9.07,0,1,1-18.13,0V510.64a3.4,3.4,0,0,0-3.4-3.4H302.73a9.07,9.07,0,0,1,0-18.14Z"/><path class="cls-2" d="M185.15,497.18V439a32.49,32.49,0,0,0-64.82-3.24,32.49,32.49,0,0,0,3.24,64.83h58.18a3.4,3.4,0,0,0,3.4-3.4Zm-61.59-54.78A3.4,3.4,0,0,0,127,439a25.69,25.69,0,1,1,51.38,0v54.78H123.57a25.69,25.69,0,0,1,0-51.38Z"/><path class="cls-2" d="M171.69,441.4a3.4,3.4,0,0,1-5.8-2.41,13.22,13.22,0,0,0-22.57-9.35,3.4,3.4,0,1,1-4.81-4.81A20,20,0,0,1,172.68,439,3.38,3.38,0,0,1,171.69,441.4Z"/><path class="cls-2" d="M13.7,299.45v-25h25a15.87,15.87,0,1,0,0-31.74h-25v-25A15.89,15.89,0,0,0-2.17,201.88,15.89,15.89,0,0,0-18,217.75v25H-43A15.89,15.89,0,0,0-58.89,258.6,15.89,15.89,0,0,0-43,274.47h25v25A15.89,15.89,0,0,0-2.17,315.32,15.89,15.89,0,0,0,13.7,299.45Zm-28.34-49.92a3.4,3.4,0,0,0,3.4-3.4V217.75a9.08,9.08,0,0,1,9.07-9.07,9.08,9.08,0,0,1,9.07,9.07v28.38a3.4,3.4,0,0,0,3.4,3.4H38.68a9.07,9.07,0,1,1,0,18.14H10.3a3.4,3.4,0,0,0-3.4,3.4v28.38a9.08,9.08,0,0,1-9.07,9.07,9.08,9.08,0,0,1-9.07-9.07V271.07a3.4,3.4,0,0,0-3.4-3.4H-43a9.08,9.08,0,0,1-9.07-9.07A9.08,9.08,0,0,1-43,249.53Z"/><path class="cls-2" d="M26.34,484.42A40.05,40.05,0,0,1-2.17,496.23a40.05,40.05,0,0,1-28.51-11.81c-17.19-17.19-17.2-39.56,0-57A138,138,0,0,0-5.29,390.6a3.4,3.4,0,0,1,3.12-2h0a3.4,3.4,0,0,1,3.12,2,138.44,138.44,0,0,0,25.41,36.82C43.54,444.85,43.54,467.23,26.34,484.42Zm-4.83-52.23A144.45,144.45,0,0,1-2.17,399.62a144.47,144.47,0,0,1-23.69,32.56c-17.36,17.62-11.39,36.05,0,47.43a33.31,33.31,0,0,0,23.71,9.82,33.31,33.31,0,0,0,23.7-9.82C32.91,468.24,38.88,449.81,21.52,432.19Z"/><path class="cls-2" d="M18.29,435.37a3.4,3.4,0,1,0-4.84,4.77c13.62,13.82,5.89,25.64.08,31.46a3.4,3.4,0,1,0,4.81,4.81C23.1,471.63,37.2,454.57,18.29,435.37Z"/><path class="cls-2" d="M136.74,348.71c-1.9,27.65-22,48.51-46.75,48.51s-44.85-20.85-46.75-48.51c-.91-13.28,1.5-23.09,7.15-29.14,4.24-4.55,10.1-6.85,17.39-6.85,8.21,0,16.37,2.91,22.2,5.63,5.83-2.72,14-5.63,22.2-5.63,7.3,0,13.15,2.31,17.4,6.85C135.25,325.62,137.65,335.43,136.74,348.71Zm-12.12-24.5c-2.91-3.11-7.09-4.69-12.43-4.69-5.95,0-13.3,2-20.69,5.65a3.4,3.4,0,0,1-3,0c-7.39-3.64-14.74-5.65-20.7-5.65-5.34,0-9.52,1.58-12.43,4.69-4.32,4.62-6.12,12.71-5.34,24,1.67,24.43,18.48,42.17,40,42.17s38.29-17.74,40-42.17C130.73,336.92,128.94,328.83,124.62,324.21Z"/><path class="cls-2" d="M87.59,308.56a19.54,19.54,0,0,1,23.19-23.18A3.4,3.4,0,0,1,113.4,288a19.53,19.53,0,0,1-19.1,23.61h0a19.69,19.69,0,0,1-4.08-.43A3.39,3.39,0,0,1,87.59,308.56ZM94,304.8A12.72,12.72,0,0,0,107,291.75,12.72,12.72,0,0,0,94,304.8Z"/><path class="cls-2" d="M601.68,11.81,528.25,85.24a17.29,17.29,0,0,1-24.44-24.45l73.43-73.43a17.31,17.31,0,0,1,24.45,0A17.31,17.31,0,0,1,601.68,11.81ZM596.87-7.83a10.5,10.5,0,0,0-14.83,0L508.62,65.6a10.49,10.49,0,0,0-.92,13.75,13.85,13.85,0,0,1,4-10.64l37-37,11.72,11.72L596.87,7A10.5,10.5,0,0,0,596.87-7.83Z"/><path class="cls-2" d="M660.63,134H637.08a3.4,3.4,0,0,0-3.08,2l-7.28,15.55-6.12-36.29a3.4,3.4,0,0,0-3.16-2.83,3.36,3.36,0,0,0-3.46,2.45l-13,45L588.55,103.7a3.4,3.4,0,0,0-6.54-.35L571.72,134H559.66a47.18,47.18,0,0,1,93.22-6.8h6.93A54,54,0,0,0,552.75,137c0,1.27.06,2.52.15,3.76h21.27a3.4,3.4,0,0,0,3.22-2.32l7.16-21.34,12.65,57.18a3.4,3.4,0,0,0,3.21,2.66h.11a3.4,3.4,0,0,0,3.26-2.46L616.37,131l5.46,32.34a3.4,3.4,0,0,0,6.43.88l11-23.46h14.52a47.17,47.17,0,0,1-93,6.8h-7A54,54,0,0,0,660.72,137C660.72,136,660.69,135,660.63,134Z"/><path class="cls-2" d="M717.84,5.28a40.05,40.05,0,0,1-28.51,11.81A40.05,40.05,0,0,1,660.82,5.28c-17.19-17.19-17.2-39.56,0-57a138,138,0,0,0,25.41-36.82,3.4,3.4,0,0,1,3.12-2h0a3.4,3.4,0,0,1,3.12,2,138.44,138.44,0,0,0,25.41,36.82C735-34.29,735-11.91,717.84,5.28ZM713-47a144.45,144.45,0,0,1-23.69-32.56A144.47,144.47,0,0,1,665.64-47c-17.36,17.62-11.39,36.05,0,47.43a33.31,33.31,0,0,0,23.71,9.82A33.31,33.31,0,0,0,713,.47C724.41-10.9,730.38-29.33,713-47Z"/><path class="cls-2" d="M530.9,257.61V199.42a32.49,32.49,0,0,0-64.82-3.24A32.49,32.49,0,0,0,469.32,261H527.5a3.4,3.4,0,0,0,3.4-3.4Zm-61.59-54.78a3.4,3.4,0,0,0,3.4-3.4,25.69,25.69,0,1,1,51.38,0v54.78H469.32a25.69,25.69,0,0,1,0-51.38Z"/><path class="cls-2" d="M517.44,201.83a3.4,3.4,0,0,1-5.8-2.41,13.22,13.22,0,0,0-22.57-9.35,3.4,3.4,0,0,1-4.81-4.81,20,20,0,0,1,34.18,14.16A3.38,3.38,0,0,1,517.44,201.83Z"/><path class="cls-2" d="M255.93,251.38,182.5,324.81a17.29,17.29,0,1,1-24.44-24.45l73.43-73.43a17.29,17.29,0,1,1,24.45,24.45Zm-4.81-19.64a10.5,10.5,0,0,0-14.83,0l-73.43,73.43a10.49,10.49,0,0,0-.92,13.75,13.85,13.85,0,0,1,4-10.64l37-37L214.64,283l36.48-36.48A10.5,10.5,0,0,0,251.12,231.74Z"/><path class="cls-2" d="M359.45,59.88v-25h25a15.87,15.87,0,1,0,0-31.74h-25v-25a15.89,15.89,0,0,0-15.87-15.87,15.89,15.89,0,0,0-15.87,15.87v25h-25a15.87,15.87,0,1,0,0,31.74h25v25a15.87,15.87,0,0,0,31.74,0ZM331.11,10a3.4,3.4,0,0,0,3.4-3.4V-21.83a9.08,9.08,0,0,1,9.07-9.07,9.08,9.08,0,0,1,9.07,9.07V6.56A3.4,3.4,0,0,0,356,10h28.38a9.07,9.07,0,1,1,0,18.14H356a3.4,3.4,0,0,0-3.4,3.4V59.88a9.07,9.07,0,1,1-18.13,0V31.49a3.4,3.4,0,0,0-3.4-3.4H302.73a9.07,9.07,0,1,1,0-18.14Z"/><path class="cls-2" d="M453.2,314.23a3.4,3.4,0,0,1-4.81,0l-7.69-7.69L435,312.25l12.47,12.48a3.4,3.4,0,0,1,0,4.81l-49.6,49.6a3.4,3.4,0,0,1-4.81,0l-4.27-4.27-10.59,10.59a3.4,3.4,0,0,1-4.81,0l-5.8-5.8L352.21,395a3.4,3.4,0,0,1-4.81-4.81l15.38-15.38L357,369a3.4,3.4,0,0,1,0-4.81l10.59-10.59-4.27-4.26a3.4,3.4,0,0,1,0-4.81l24.79-24.79h0L412.91,295a3.39,3.39,0,0,1,4.81,0l12.47,12.47,5.71-5.71L428.21,294a3.4,3.4,0,1,1,4.81-4.81l20.18,20.18A3.4,3.4,0,0,1,453.2,314.23ZM384,370.06l-11.61-11.61-8.19,8.19,11.61,11.61Zm56.27-42.93-24.95-24.95-8.7,8.7,12.47,12.47a3.4,3.4,0,0,1-4.81,4.81L401.8,315.69l-6.48,6.48,12.47,12.47a3.4,3.4,0,0,1-4.81,4.81L390.51,327,384,333.46l12.47,12.48a3.4,3.4,0,0,1-4.81,4.81l-12.47-12.48-8.7,8.7,24.95,24.95Z"/><path class="cls-2" d="M514.38,407.45a13.17,13.17,0,0,1,2.08,15.88l.83.83a27.87,27.87,0,0,1-39.41,39.41l-15-15a35.08,35.08,0,0,1-46.55-2.67L406,435.61l-3.67,3.67a3.4,3.4,0,0,1-4.81-4.81l6.07-6.07a3.4,3.4,0,0,1,4.81,0l12.68,12.69A28.23,28.23,0,1,0,461,401.15l-12.68-12.68a3.4,3.4,0,0,1,0-4.81l6.06-6.06a3.4,3.4,0,0,1,4.81,4.81l-3.66,3.66,10.28,10.28a35.08,35.08,0,0,1,1.89,47.48l14.95,14.95A21.07,21.07,0,1,0,512.49,429l-.83-.83a13.15,13.15,0,1,1,2.73-20.69Zm-4.81,4.81a6.36,6.36,0,1,0,0,9A6.37,6.37,0,0,0,509.58,412.26Z"/><path class="cls-2" d="M314.88,373.56H291.33a3.4,3.4,0,0,0-3.08,2L281,391.07l-6.12-36.29a3.4,3.4,0,0,0-3.16-2.83,3.36,3.36,0,0,0-3.46,2.45l-13,45L242.8,343.27a3.4,3.4,0,0,0-6.54-.35L226,373.56H213.91a47.18,47.18,0,0,1,93.22-6.8h6.93A54,54,0,0,0,207,376.6c0,1.27.06,2.52.15,3.76h21.27a3.4,3.4,0,0,0,3.22-2.32l7.16-21.34,12.65,57.18a3.4,3.4,0,0,0,3.21,2.66h.11A3.4,3.4,0,0,0,258,414.1l12.58-43.49,5.46,32.34a3.4,3.4,0,0,0,6.43.88l11-23.46H308a47.17,47.17,0,0,1-93,6.8h-7A54,54,0,0,0,315,376.6C315,375.58,314.94,374.57,314.88,373.56Z"/><path class="cls-2" d="M372.09,244.85a40.31,40.31,0,0,1-57,0c-17.19-17.19-17.2-39.56,0-57A138,138,0,0,0,340.46,151a3.4,3.4,0,0,1,3.12-2h0a3.4,3.4,0,0,1,3.12,2,138.44,138.44,0,0,0,25.41,36.82C389.29,205.28,389.29,227.66,372.09,244.85Zm-4.83-52.23a144.45,144.45,0,0,1-23.69-32.56,144.47,144.47,0,0,1-23.69,32.56c-17.36,17.62-11.39,36.05,0,47.43a33.52,33.52,0,0,0,47.41,0C378.66,228.67,384.63,210.24,367.27,192.61Z"/><path class="cls-2" d="M364,195.8a3.4,3.4,0,1,0-4.84,4.77c13.62,13.82,5.89,25.64.08,31.46a3.4,3.4,0,1,0,4.81,4.81C368.85,232.06,383,215,364,195.8Z"/><path class="cls-2" d="M234.47,102.77c1.31-19.57,1.39-39.63-17.49-58.51a3.4,3.4,0,0,0-4.81,4.81,56.93,56.93,0,0,1,8.3,10.39L210,69.87a3.4,3.4,0,1,0,4.81,4.81l8.9-8.9a49.87,49.87,0,0,1,2.69,8.15L215.2,85.18A3.4,3.4,0,0,0,220,90l7.8-7.8a128.47,128.47,0,0,1-.19,21.06c-2.93.2-5.83.38-8.71.47l3-3a3.4,3.4,0,1,0-4.81-4.81l-7.72,7.72a63.45,63.45,0,0,1-10.92-1.53l8.21-8.21a3.4,3.4,0,1,0-4.81-4.81L191.14,99.81A48.8,48.8,0,0,1,183,95.55l12.67-12.67a3.4,3.4,0,0,0-4.81-4.81L177.42,91.46c-1.34-1.12-2.67-2.33-4-3.66a3.4,3.4,0,0,0-4.81,4.81c18.89,18.88,38.95,18.8,58.51,17.49C225.8,129.55,225.51,149.5,244,168a3.4,3.4,0,1,0,4.81-4.81A54.27,54.27,0,0,1,240.72,153l.17-.14,15.54-15.54a3.4,3.4,0,0,0-4.81-4.81l-14.13,14.13a49.12,49.12,0,0,1-2.6-8.27l.1-.08,9-9a3.4,3.4,0,0,0-4.81-4.81L233.66,130a136.62,136.62,0,0,1,.32-20.37c2.65-.19,5.27-.35,7.88-.46l-3.37,3.37a3.4,3.4,0,1,0,4.81,4.81l8.22-8.22a64.61,64.61,0,0,1,11.07,1.38l-10.06,10.06a3.4,3.4,0,0,0,4.81,4.81L269.6,113.1a3.19,3.19,0,0,0,.33-.4,47.08,47.08,0,0,1,8.31,4.21l-14.67,14.67a3.4,3.4,0,1,0,4.81,4.81l15.4-15.4c1.27,1.07,2.54,2.22,3.8,3.48a3.4,3.4,0,1,0,4.81-4.81C273.87,101.15,253.91,101.43,234.47,102.77Z"/><path class="cls-2" d="M482.49,109.14c-1.9,27.65-22,48.51-46.75,48.51S390.89,136.79,389,109.14C388.09,95.86,390.5,86,396.15,80c4.24-4.55,10.1-6.85,17.39-6.85,8.21,0,16.37,2.91,22.2,5.63,5.83-2.72,14-5.63,22.2-5.63,7.3,0,13.15,2.31,17.4,6.85C481,86.05,483.4,95.86,482.49,109.14Zm-12.12-24.5c-2.91-3.11-7.09-4.69-12.43-4.69-5.95,0-13.3,2-20.69,5.65a3.4,3.4,0,0,1-3,0c-7.39-3.64-14.74-5.65-20.7-5.65-5.34,0-9.52,1.58-12.43,4.69-4.32,4.62-6.12,12.71-5.34,24,1.67,24.43,18.48,42.17,40,42.17s38.29-17.74,40-42.17C476.48,97.35,474.69,89.26,470.37,84.64Z"/><path class="cls-2" d="M433.34,69A19.54,19.54,0,0,1,456.53,45.8a3.4,3.4,0,0,1,2.62,2.62A19.53,19.53,0,0,1,440,72h0a19.69,19.69,0,0,1-4.08-.43A3.39,3.39,0,0,1,433.34,69Zm6.37-3.76a12.72,12.72,0,0,0,13.06-13.05,12.72,12.72,0,0,0-13.06,13.05Z"/><path class="cls-2" d="M185.15,18V-40.15a32.53,32.53,0,0,0-32.49-32.49,32.29,32.29,0,0,0-23,9.52,32.24,32.24,0,0,0-9.36,19.73A32.25,32.25,0,0,0,100.59-34a32.28,32.28,0,0,0-9.52,23,32.53,32.53,0,0,0,32.49,32.49h58.18a3.4,3.4,0,0,0,3.4-3.4ZM123.57-36.75a3.4,3.4,0,0,0,3.4-3.4,25.53,25.53,0,0,1,7.53-18.17,25.53,25.53,0,0,1,18.17-7.53,25.72,25.72,0,0,1,25.69,25.69V14.63H123.57A25.72,25.72,0,0,1,97.88-11.06a25.53,25.53,0,0,1,7.53-18.17A25.52,25.52,0,0,1,123.57-36.75Z"/><path class="cls-2" d="M107.45,74.65a3.4,3.4,0,0,1-4.81,0L95,67l-5.71,5.71,12.47,12.48a3.4,3.4,0,0,1,0,4.81l-49.6,49.6a3.4,3.4,0,0,1-4.81,0l-4.27-4.27L32.46,145.88a3.4,3.4,0,0,1-4.81,0l-5.8-5.8L6.46,155.46a3.4,3.4,0,0,1-4.81-4.81L17,135.27l-5.81-5.8a3.4,3.4,0,0,1,0-4.81l10.59-10.59-4.27-4.26a3.4,3.4,0,0,1,0-4.81L42.35,80.2h0L67.16,55.4a3.4,3.4,0,0,1,4.81,0L84.44,67.87l5.71-5.71-7.68-7.69a3.4,3.4,0,1,1,4.81-4.81l20.18,20.18A3.4,3.4,0,0,1,107.45,74.65ZM38.24,130.48,26.63,118.87l-8.19,8.19,11.61,11.61ZM94.51,87.56,69.56,62.61l-8.7,8.7L73.33,83.78a3.4,3.4,0,0,1-4.81,4.81L56,76.12,49.57,82.6,62,95.07a3.4,3.4,0,0,1-4.81,4.81L44.76,87.41l-6.48,6.48,12.47,12.48a3.4,3.4,0,0,1-4.81,4.81L33.47,98.69l-8.7,8.7,24.95,24.95Z"/><path class="cls-2" d="M168.63,167.88a13.17,13.17,0,0,1,2.08,15.88l.83.83A27.87,27.87,0,1,1,132.13,224l-15-15a35.08,35.08,0,0,1-46.55-2.67L60.28,196l-3.67,3.67a3.4,3.4,0,0,1-4.81-4.81l6.07-6.07a3.4,3.4,0,0,1,4.81,0l12.68,12.69a28.23,28.23,0,1,0,39.93-39.93l-12.68-12.68a3.4,3.4,0,0,1,0-4.81l6.06-6.06a3.4,3.4,0,1,1,4.81,4.81l-3.66,3.66,10.28,10.28A35.08,35.08,0,0,1,122,204.25l14.95,14.95a21.07,21.07,0,0,0,29.8-29.79l-.83-.83a13.15,13.15,0,1,1,2.73-20.69Zm-4.81,4.81a6.36,6.36,0,1,0,0,9A6.37,6.37,0,0,0,163.83,172.69Z"/><path class="cls-2" d="M26.34,5.28A40.05,40.05,0,0,1-2.17,17.09,40.05,40.05,0,0,1-30.68,5.28c-17.19-17.19-17.2-39.56,0-57A138,138,0,0,0-5.29-88.55a3.4,3.4,0,0,1,3.12-2h0a3.4,3.4,0,0,1,3.12,2A138.44,138.44,0,0,0,26.36-51.73C43.54-34.29,43.54-11.91,26.34,5.28ZM21.52-47A144.45,144.45,0,0,1-2.17-79.52,144.47,144.47,0,0,1-25.86-47C-43.21-29.33-37.25-10.9-25.87.47A33.31,33.31,0,0,0-2.17,10.29,33.31,33.31,0,0,0,21.54.47C32.91-10.9,38.88-29.33,21.52-47Z"/></pattern></defs><title>bg_medical</title><rect class="cls-3" width="429.08" height="429.08"/></svg>