<svg id="Layer_1" data-name="Layer 1" xmlns="http://www.w3.org/2000/svg" viewBox="0 0 144.83 64.48"><defs><style>.cls-1{fill:#181818;}.cls-2{fill:#205a86;}.cls-3{fill:#4a94d0;}.cls-4{fill:#bec8d5;}.cls-5{fill:#e6e2e0;}.cls-6{fill:#ccc4c1;}.cls-7{fill:#fff;}</style></defs><title>cash</title><polygon class="cls-1" points="44.58 20.63 0 48.7 27.76 64.48 45.59 53.25 49.01 47.64 54.5 47.64 72.33 36.41 44.58 20.63 44.58 20.63"/><polygon class="cls-2" points="44.58 13.74 0 41.81 27.76 57.59 72.33 29.52 44.58 13.74 44.58 13.74"/><polygon class="cls-3" points="44.58 6.89 0 34.95 27.76 50.73 72.33 22.66 44.58 6.89 44.58 6.89"/><polygon class="cls-4" points="44.58 0 26.75 11.23 26.75 16.84 17.83 16.84 0 28.07 27.76 43.85 72.33 15.78 44.58 0 44.58 0"/><polygon class="cls-5" points="26.75 11.26 17.83 16.87 45.59 32.65 50.04 33.33 54.5 27.03 26.75 11.26 26.75 11.26"/><polygon class="cls-6" points="45.54 32.66 45.54 53.19 54.44 47.59 54.44 27.06 45.54 32.66 45.54 32.66"/><path class="cls-7" d="M89.83,36.74v-9h5v1h-3v3h2v1h-2v3h3v1Z"/><path class="cls-7" d="M96.83,36.74v-9h5v1h-3v3h2v1h-2v4Z"/><path class="cls-7" d="M103.82,36.74v-9h5v1h-3v3h2v1h-2v3h3v1Z"/><path class="cls-7" d="M116.82,34.74q-.12,2-2,2h-2a2,2,0,0,1-2-2v-5a1.94,1.94,0,0,1,.58-1.41,1.91,1.91,0,0,1,1.42-.59h2q1.88,0,2,2h-1q-.12-1-1-1h-1a1,1,0,0,0-.7.29,1,1,0,0,0-.29.71v5a1,1,0,0,0,.29.71,1,1,0,0,0,.7.3h1q.89,0,1-1Z"/><path class="cls-7" d="M119.83,36.74v-8h-2v-1h6v1h-2v8Z"/><path class="cls-7" d="M125.83,36.74v-9h2v9Z"/><path class="cls-7" d="M134.83,27.74h2v5.58a3.43,3.43,0,0,1-3.41,3.42h-2.59v-9h2v8h1a1,1,0,0,0,.71-.3,1,1,0,0,0,.29-.71Z"/><path class="cls-7" d="M140.83,27.74h2a1.91,1.91,0,0,1,1.4.59,1.94,1.94,0,0,1,.59,1.41v5a1.94,1.94,0,0,1-.59,1.41,1.91,1.91,0,0,1-1.4.59h-2a2,2,0,0,1-2-2v-5a2,2,0,0,1,2-2Zm0,2v5a1,1,0,0,0,.29.71,1,1,0,0,0,.7.3,1,1,0,0,0,.71-.3,1,1,0,0,0,.29-.71v-5a1,1,0,0,0-1-1,1,1,0,0,0-.7.29A1,1,0,0,0,140.83,29.74Z"/></svg>