<svg id="Layer_1" data-name="Layer 1" xmlns="http://www.w3.org/2000/svg" viewBox="0 0 117.7 60.95"><defs><style>.cls-1{fill:#fff;}.cls-2{fill:#f89734;}</style></defs><title>cheque</title><path class="cls-1" d="M35.34,21.94l2.41-1.46a.62.62,0,0,0-.12-1.11l-11.05-3.8a.62.62,0,0,0-.79.79l3.85,11a.62.62,0,0,0,1.11.12l1.48-2.41,4.49,4.5a.62.62,0,0,0,.87,0l2.26-2.26a.62.62,0,0,0,0-.87Z"/><path class="cls-1" d="M79.68,34.37q-.12,2-2,2h-2a2,2,0,0,1-2-2v-5A1.94,1.94,0,0,1,74.27,28a1.91,1.91,0,0,1,1.42-.59h2q1.88,0,2,2h-1q-.12-1-1-1h-1a1,1,0,0,0-.7.29,1,1,0,0,0-.29.71v5a1,1,0,0,0,.29.71,1,1,0,0,0,.7.3h1q.89,0,1-1Z"/><path class="cls-1" d="M81.69,36.37v-9h2v4h2v-4h2v9h-2v-4h-2v4Z"/><path class="cls-1" d="M89.69,36.37v-9h5v1h-3v3h2v1h-2v3h3v1Z"/><path class="cls-1" d="M100.19,36.37h-1.5a2,2,0,0,1-2-2v-5a2,2,0,0,1,2-2h2a1.91,1.91,0,0,1,1.4.59,1.94,1.94,0,0,1,.59,1.41v5q0,1.78-2,2h2v1h-1.5Q100.31,37.37,100.19,36.37Zm-1.5-7v5a1,1,0,0,0,.29.71,1,1,0,0,0,.7.3,1,1,0,0,0,.71-.3,1,1,0,0,0,.29-.71v-5a1,1,0,0,0-1-1,1,1,0,0,0-.7.29A1,1,0,0,0,98.69,29.37Z"/><path class="cls-1" d="M108.7,27.37h2v7a1.94,1.94,0,0,1-.59,1.41,1.91,1.91,0,0,1-1.4.59h-2a2,2,0,0,1-2-2v-7h2v7a1,1,0,0,0,.29.71,1,1,0,0,0,.7.3,1,1,0,0,0,.71-.3,1,1,0,0,0,.29-.71Z"/><path class="cls-1" d="M112.7,36.37v-9h5v1h-3v3h2v1h-2v3h3v1Z"/><path class="cls-2" d="M46.67,23.27l9.6,3.53-8,21.76c-.75,2-4.81,8.45-7.63,9.75L40,60.18a1.19,1.19,0,0,1-1.11.77,1.14,1.14,0,0,1-.4-.07,1.16,1.16,0,0,1-.69-1.5l.64-1.78C37,54.83,38.06,46.74,38.69,45Zm13.9-23c-2.64-1-5.73,1-6.62,3.46L48.17,19.46,57.77,23,63.55,7.22c.73-2-.33-6-3-7ZM43.19,22.46a2.43,2.43,0,0,0,.82.15,2.33,2.33,0,0,0,2.19-1.53L52.31,4.6A2.34,2.34,0,0,0,47.92,3L41.81,19.45a2.34,2.34,0,0,0,1.39,3ZM33.36,53.34a9.16,9.16,0,0,0-2.69-1.91,6.89,6.89,0,0,0-2.81-.5H27.6a3.61,3.61,0,0,0-2.82-2.39,5.71,5.71,0,0,0-4.42,1.17c.1-.52.24-1.14.35-1.6a10.26,10.26,0,0,0,.46-4.34,2.51,2.51,0,0,0-2.29-2c-2.89-.16-5.27,1.4-7.36,2.81s-3.6,2.37-5,1.87c-1.72-.61-1.89-5.24-1.06-9.36.73-3.72,2.11-10.64,5.61-13.78,1.18-1.06,2.88-2.2,4.3-1.64,1.65.64,3,3.37,3.32,6.61a2.49,2.49,0,0,0,5-.46c-.5-5.28-3-9.42-6.46-10.78-2.09-.82-5.43-1-9.46,2.57-4.38,3.93-6,10.59-7.18,16.52-.59,3-2,12.79,4.28,15,3.84,1.36,7-.74,9.47-2.43.45-.32.9-.62,1.34-.89-.41,1.81-.67,3.74.43,5.36,1.62,2.46,3.92,2.71,6.83.8l.36-.24a3.29,3.29,0,0,0,1.6,1.61,6.35,6.35,0,0,0,2.86.56,4,4,0,0,1,.91.09,4.18,4.18,0,0,1,1.28,1,14.31,14.31,0,0,0,1.38,1.19,2.48,2.48,0,0,0,3.48-.5,2.49,2.49,0,0,0-.5-3.49c-.36-.28-.64-.56-.93-.82Zm0,0"/></svg>