<svg id="Layer_1" data-name="Layer 1" xmlns="http://www.w3.org/2000/svg" viewBox="0 0 310 310"><defs><style>.cls-1{fill:#25a9e0;}</style></defs><title>favicon</title><path class="cls-1" d="M305.52,185.8a27,27,0,0,0-24.22-12.07,11.79,11.79,0,0,0-.35-1.5l-14.38-34.1c-11.5-27.43-41.86-41-67.62-30.19s-37.2,42-25.59,69.46l12.54,29.79c8.51,20.24.4,43-18.06,50.77s-40.25-2.3-48.88-22.54L92.22,172.12A69,69,0,0,0,138,107.43V44.17a7.19,7.19,0,0,0-6.9-7H108.5a7.16,7.16,0,0,0,0,14.32H124v55.95a54.74,54.74,0,0,1-109.25,0V51.48H31.45a7.16,7.16,0,0,0,0-14.32H7.59A7.13,7.13,0,0,0,0,43.81q0,.24,0,.47v63.25a69,69,0,0,0,60.15,68.14l14.61.23q1.7-.14,3.38-.37l27.56,65.4c11.5,27.49,41.86,41,67.62,30.19s37.26-42,25.7-69.46l-12.59-29.73c-8.51-20.18-.4-43,18.06-50.77s40.25,2.36,48.88,22.54l14.38,34a1,1,0,0,0,.34.4,27,27,0,1,0,37.45,7.64ZM288,212.08a12.54,12.54,0,1,1,6.62-16.44l0,.11A12.59,12.59,0,0,1,288,212.08Z"/></svg>