<svg id="Layer_1" data-name="Layer 1" xmlns="http://www.w3.org/2000/svg" viewBox="0 0 50 67.1"><defs><style>.cls-1{fill:#39ace2;}.cls-2{fill:#f7f1e6;}.cls-3{fill:#e9f6fc;}.cls-4{fill:#fff;}.cls-5{fill:#dec8ae;}</style></defs><title>figure_1</title><ellipse class="cls-1" cx="24.96" cy="13.46" rx="14.66" ry="13.46"/><path class="cls-2" d="M20.93,47.71l.11.09-1.45-3.35-1.18.85a4.54,4.54,0,0,1,2.52,2.41Zm0,0"/><path class="cls-2" d="M15.66,44.59c.09-1.15.21-2.41.29-3.22l-.58.18c0,.3.09.68.14,1.15s.12,1.17.15,1.89Zm0,0"/><path class="cls-3" d="M42.28,44.95c-.91-.51-1.78-1-2.62-1.36a14.9,14.9,0,0,1,.55,4.05s0,0,0,0a4.7,4.7,0,1,1-1.34-.19h0a12.94,12.94,0,0,0-.65-4.56,34.45,34.45,0,0,0-3.9-1.47c.09.88.21,2.21.31,3.38.15,1.95-1.54,1.27-2.36.74l-.74-.52-6.09,13-2.21-5.12a1,1,0,0,1-.19.23c0,.21,0,.41,0,.63a8.52,8.52,0,0,1-1.22,4.54A4.82,4.82,0,0,1,20.22,60a1,1,0,0,1,0,.11,1,1,0,0,1-1,1.05c-.55,0-1.5-.47-1.5-1.05S18.68,59,19.23,59a1,1,0,0,1,.54.17c1.6-.88,2.45-3.19,2.45-5.39,0-.14,0-.28,0-.41a1,1,0,0,1-.75-.87c-.35-2.77-2.51-4.34-5.93-4.31h0c-3.15.12-5.13,1.67-5.46,4.3a1,1,0,0,1-.75.87c0,.14,0,.27,0,.41,0,2.2.85,4.51,2.45,5.39a1,1,0,0,1,.54-.17c.55,0,1.5.47,1.5,1.05s-.95,1.05-1.5,1.05a1,1,0,0,1-1-1.05,1,1,0,0,1,0-.11,4.83,4.83,0,0,1-1.65-1.62,8.53,8.53,0,0,1-1.22-4.54c0-.21,0-.42,0-.63a1.06,1.06,0,0,1-.35-.93,6.7,6.7,0,0,1,2.19-4.28.28.28,0,0,1,0-.08c0-.78,1.57-2.59,4.08-3.07,0-.75-.09-1.4-.15-2,0-.31-.06-.59-.08-.86a44.42,44.42,0,0,0-6.41,3C4.43,46.77,0,47.79,0,52.66v10c0,2.52,2.57,4.4,6.19,4.4H43.81c3.62,0,6.19-1.88,6.19-4.4v-10c0-4.87-4.43-5.89-7.72-7.71Z"/><path class="cls-2" d="M42.28,44.95"/><path class="cls-1" d="M25.16,40.36h0c-.21.16-3.49,2.58-5.55,4.08L21,47.8l.17.14a6.69,6.69,0,0,1,2.2,4.29,1.08,1.08,0,0,1-.15.7l2.21,5.12,6.09-13c-1.83-1.31-6.15-4.52-6.4-4.7Zm0,0"/><path class="cls-4" d="M25.14,40.35h0L30.73,37l0,0V34.24a11,11,0,0,1-5.6,1.61,11,11,0,0,1-5.6-1.61V37l0,0Zm0,0"/><path class="cls-5" d="M25.15,40.35h0Zm0,0"/><path class="cls-4" d="M30.75,34.24C34.85,31.82,38,27,39.11,22a18.15,18.15,0,0,1-.86-2.71,4.94,4.94,0,0,0-.08.9c.06,1.68-1.3,3.51-1.32,0,0-3.07-5.18-10.27-5.5-10.46A28.78,28.78,0,0,1,22,14.3c-.56.13-1.51.06-.84-.51A3.7,3.7,0,0,0,22.23,12c.24-.74-2.9,1.93-5.2,3.14-.59.31-1.81.83-.89-.25a2.44,2.44,0,0,0,.64-1.64c-3.28,1.79-3.22,4.23-3.22,7,0,2.44-1.32,3.17-1.47,1a3.55,3.55,0,0,1-.65,1.64c1.28,4.65,4.28,9,8.12,11.3a11,11,0,0,0,5.6,1.61,11,11,0,0,0,5.6-1.61Zm0,0"/><path class="cls-1" d="M37.32,41.42a4.11,4.11,0,0,1,.94,1.51,12.9,12.9,0,0,1,.65,4.56,4.7,4.7,0,0,1,1.31.19s0,0,0,0a14.9,14.9,0,0,0-.55-4.05,6.6,6.6,0,0,0-2.15-3.7c-1.93-1.28-4.19-1.23-5.3-1.41l1.3,1.29c2.2.35,2.67.58,3.8,1.65Zm0,0"/><path class="cls-1" d="M12.08,21.31c.16,2.15,1.48,1.42,1.47-1,0-2.79-.06-5.23,3.22-7a2.44,2.44,0,0,1-.64,1.64c-.91,1.09.31.56.89.25,2.3-1.21,5.44-3.88,5.2-3.14a3.7,3.7,0,0,1-1.08,1.78c-.67.57.28.64.84.51a28.78,28.78,0,0,0,9.36-4.64c.32.19,5.49,7.39,5.5,10.46,0,3.55,1.37,1.72,1.32,0a4.94,4.94,0,0,1,.08-.9A18.15,18.15,0,0,0,39.11,22c.62,1.35,1,.56,1.53-2.22A20.54,20.54,0,0,0,39.31,10a17.89,17.89,0,0,0-3.7-5.74l-.12.39A4.06,4.06,0,0,1,31.31,7.6H19.64a4.06,4.06,0,0,1-4.18-2.95l-.34-1.16a13.55,13.55,0,0,0-3.56,4.59C9.77,11.8,9.8,16.9,9.94,18.91c.23,3.27.9,4.62,1.49,4a3.55,3.55,0,0,0,.65-1.64Zm0,0"/><path class="cls-4" d="M38.88,47.44a4.74,4.74,0,1,0,1.35.2,4.74,4.74,0,0,0-1.35-.2Zm3.88,4.74a3.88,3.88,0,1,1-3.88-3.88,3.88,3.88,0,0,1,3.88,3.88Zm0,0"/><path class="cls-1" d="M35,52.18a3.88,3.88,0,1,0,3.88-3.88A3.88,3.88,0,0,0,35,52.18Zm5.71,0a1.84,1.84,0,1,1-1.84-1.84,1.84,1.84,0,0,1,1.84,1.84Zm0,0"/><path class="cls-3" d="M40.72,52.16a1.84,1.84,0,1,1-1.86-1.81,1.84,1.84,0,0,1,1.86,1.81Zm0,0"/><path class="cls-1" d="M8.94,53.39a1,1,0,0,1-.5-.23c0,.21,0,.42,0,.63a8.53,8.53,0,0,0,1.22,4.54,4.83,4.83,0,0,0,1.65,1.62,1.06,1.06,0,0,1,.45-.77c-1.6-.88-2.45-3.19-2.45-5.39,0-.14,0-.28,0-.41a.94.94,0,0,1-.35,0Zm0,0"/><path class="cls-1" d="M22.21,53.38c0,.14,0,.27,0,.41,0,2.2-.85,4.51-2.45,5.39a1.06,1.06,0,0,1,.45.77,4.83,4.83,0,0,0,1.65-1.62,8.53,8.53,0,0,0,1.22-4.54c0-.21,0-.42,0-.63a1,1,0,0,1-.5.23.94.94,0,0,1-.35,0Zm0,0"/><path class="cls-4" d="M11.29,59.95s0,.08,0,.12a1,1,0,0,0,1,1.05c.55,0,1.5-.47,1.5-1.05S12.83,59,12.28,59a1,1,0,0,0-.54.17,1.06,1.06,0,0,0-.45.77Zm0,0"/><path class="cls-4" d="M19.77,59.18a1,1,0,0,0-.54-.17c-.55,0-1.5.47-1.5,1.05s.95,1.05,1.5,1.05a1,1,0,0,0,1-1.05,1,1,0,0,0,0-.11,1.06,1.06,0,0,0-.45-.77Zm0,0"/><path class="cls-3" d="M15.66,44.69c1.2.27,1,.12,2.75.62l1.18-.85c2.06-1.5,5.34-3.93,5.55-4.08h0L19.56,37,16,40.5l-.09.87c-.08.81-.2,2.07-.29,3.22v.1Zm0,0"/><path class="cls-3" d="M25.17,40.35h0c.24.18,4.57,3.38,6.4,4.7l.74.52c.81.52,2.51,1.2,2.36-.74-.09-1.17-.22-2.5-.31-3.38-.06-.58-.1-1-.1-1l-.74-.74-1.3-1.29L30.75,37Zm0,0"/><path class="cls-1" d="M14.35,44.81a6.64,6.64,0,0,1,1.25-.12h0v-.1c0-.73-.09-1.36-.15-1.89s-.11-.85-.14-1.15a1.1,1.1,0,0,1,.1-.7c.14-.22.06-.34.57-.34.92-.92,1.42-1.38,1.42-1.38a4.85,4.85,0,0,1-1.18.05,1.84,1.84,0,0,0-1.81.82,3,3,0,0,0-.34,2c0,.27,0,.55.08.86.06.58.12,1.23.15,2Zm0,0"/><path class="cls-1" d="M15.89,46.11H16l.19,0a8.1,8.1,0,0,1,4.75,1.58,4.54,4.54,0,0,0-2.52-2.41,8.31,8.31,0,0,0-2.75-.62h0a6.65,6.65,0,0,0-1.26.12c-2.51.48-4.08,2.28-4.08,3.07a.26.26,0,0,0,0,.08h0a8.22,8.22,0,0,1,5.59-1.83Zm0,0"/><path class="cls-4" d="M23.41,52.23a6.69,6.69,0,0,0-2.2-4.29L21,47.8l-.11-.09a8.1,8.1,0,0,0-4.75-1.58l-.19,0h-.1a8.22,8.22,0,0,0-5.59,1.83h0A6.69,6.69,0,0,0,8.1,52.23a1.06,1.06,0,0,0,.35.93,1,1,0,0,0,.5.23.92.92,0,0,0,.35,0A1,1,0,0,0,10,52.5c.33-2.64,2.31-4.19,5.46-4.3h0c3.42,0,5.58,1.55,5.93,4.31a1,1,0,0,0,.75.87.94.94,0,0,0,.35,0,1,1,0,0,0,.5-.23,1,1,0,0,0,.19-.23,1.08,1.08,0,0,0,.15-.7Zm0,0"/></svg>