<svg id="Layer_1" data-name="Layer 1" xmlns="http://www.w3.org/2000/svg" viewBox="0 0 66 64.94"><defs><style>.cls-1{fill:#39ace2;}.cls-2{fill:#e9f6fc;}.cls-3{fill:#fff;}</style></defs><title>figure_3</title><path class="cls-1" d="M16.91,46.56c-2.12,2-18,17.2-16.85,18.33S15.67,50.81,18.25,48.09a2.38,2.38,0,0,1-1.34-1.53Zm0,0"/><path class="cls-2" d="M19,42.68,17.52,44.2a2.4,2.4,0,0,0,3.39,3.39l1.36-1.36A8.71,8.71,0,0,1,20.48,45,7.42,7.42,0,0,1,19,42.68Zm0,0"/><path class="cls-3" d="M55.79,7.84,53,10.57,55,12.49l.18.18,2.74-2.74Zm0,0"/><path class="cls-1" d="M52.28,17.35a.66.66,0,0,1-.93.93L50.27,17.2l-2.63,2.62,1.08,1.09a.66.66,0,1,1-.93.93l-1.09-1.09-2.89,2.88,1.09,1.09a.66.66,0,0,1-.93.93l-1.09-1.09-2.46,2.6,2.76,2.76A1.1,1.1,0,0,1,43,31.56a1,1,0,0,1-1.22.12L30.48,43.18l0,0,0,0a5.55,5.55,0,0,1-7.85,0,5.65,5.65,0,0,1-.42-7.55l.42-.42L34,23.95a1.27,1.27,0,0,1,.25-1.43,1.1,1.1,0,0,1,1.64.16l2.71,2.56,2.46-2.45-1.22-1.22a.66.66,0,0,1,.93-.93L42,21.85,44.92,19l-1.23-1.23a.66.66,0,1,1,.93-.93L45.86,18l2.63-2.62-1.24-1.24a.66.66,0,0,1,.93-.93l1.24,1.24L53,10.57,55,12.49,50.15,7.67a2.4,2.4,0,0,0-3.39,0L20.48,33.95l-.59.59A7.87,7.87,0,0,0,31.5,45.14l.05-.06,0,0L57.86,18.78a2.4,2.4,0,0,0,0-3.39L55,12.51l-3.78,3.77Zm0,0"/><path class="cls-3" d="M34.14,24.31a1.25,1.25,0,0,1-.25-.36L22.57,35.27l-.42.42a5.65,5.65,0,0,0,.42,7.55,5.55,5.55,0,0,0,7.85,0l0,0,0,0L41.82,31.84a1.26,1.26,0,0,1-.42-.28Zm0,0"/><path class="cls-1" d="M65.4,11.66,54.34.6A1.92,1.92,0,0,0,51.63.53L51.3.86a1.92,1.92,0,0,0,.07,2.71L55.79,8,56.9,9.1l1,1,4.55,4.55a1.92,1.92,0,0,0,2.71.07l.33-.33a1.92,1.92,0,0,0-.07-2.71Zm0,0"/><path class="cls-2" d="M45.7,17.89,47.79,20l2.63-2.62-2.09-2.09Zm0,0"/><path class="cls-2" d="M41.88,21.69,44,23.79l2.89-2.88-2.09-2.09Zm0,0"/><path class="cls-2" d="M40.58,27.17,43,24.72l-2.09-2.09-2.46,2.45-2.56-2.56a1.27,1.27,0,0,0-1.79,1.79l7.25,7.25a1.27,1.27,0,0,0,1.79-1.79Zm0,0"/><path class="cls-2" d="M55,12.49,53,10.57l-3.77,3.76,2.09,2.09,3.78-3.77h0Zm0,0"/><path class="cls-3" d="M40.81,20.62a.66.66,0,0,0-.93.93l1.07,1.07L43,24.72l.94.94a.66.66,0,0,0,.93-.93Zm0,0"/><path class="cls-3" d="M44.62,16.81a.66.66,0,1,0-.93.93l1.08,1.08,2.09,2.09.93.93a.66.66,0,0,0,.93-.93L47.79,20,45.7,17.89Zm0,0"/><path class="cls-3" d="M47.25,13.25a.66.66,0,0,0,0,.93l1.08,1.08,2.09,2.09.93.93a.66.66,0,0,0,.93-.93l-3-3-1.08-1.08a.66.66,0,0,0-.93,0Zm0,0"/></svg>