<svg id="Layer_1" data-name="Layer 1" xmlns="http://www.w3.org/2000/svg" viewBox="0 0 70.08 42.69"><defs><style>.cls-1{fill:#39ace2;}.cls-2{fill:#e9f6fc;}.cls-3{fill:#fff;}</style></defs><title>figure_2</title><path class="cls-1" d="M22.53,5.3A4.37,4.37,0,0,1,23,3.51H16a2.25,2.25,0,0,0-2.21,1.8h8.73Zm0,0"/><path class="cls-2" d="M22.53,5.4s0-.07,0-.1H13.81c-.32,0-4.41-.11-6.22,2.73s-2.38,5.32-5.2,9.67C.27,20.88.06,22.36.06,24.26S0,27.49,0,30.94s2.16,4.84,5.24,4.84H8.1a6.68,6.68,0,0,1,13.35,0h1.08ZM20,22.09,8,22c-1,0-2.19-1.17-1.28-3.16,1.22-2.46,2.63-5.13,3.24-6.09,1.07-1.69,3.55-1.55,3.55-1.55h6.55Zm0,0"/><path class="cls-1" d="M14.77,29.22A6.73,6.73,0,0,0,8,35.78c0,.06,0,.12,0,.17a6.73,6.73,0,0,0,13.47,0c0-.06,0-.12,0-.17a6.73,6.73,0,0,0-6.73-6.56ZM18.36,36a3.58,3.58,0,1,1-3.58-3.58A3.58,3.58,0,0,1,18.36,36Zm0,0"/><path class="cls-3" d="M18.44,36a3.67,3.67,0,1,1-3.67-3.67A3.67,3.67,0,0,1,18.44,36Zm0,0"/><path class="cls-3" d="M10,12.79c-.61,1-2,3.63-3.24,6.09C5.82,20.88,7,22,8,22l12,0,0-10.85H13.52S11,11.11,10,12.79Zm0,0"/><path class="cls-1" d="M65.71,1H26.91A4.38,4.38,0,0,0,23,3.5a7.08,7.08,0,0,0-.6,1.89V35.77l24.34,0v0a6.68,6.68,0,0,1,13.36,0v0H65.7a4.38,4.38,0,0,0,4.38-4.37v-26A4.38,4.38,0,0,0,65.71,1ZM51.95,17.22a1.68,1.68,0,0,1-1.68,1.68H47.61v2.66a1.68,1.68,0,0,1-1.68,1.68H44.81a1.68,1.68,0,0,1-1.68-1.68V18.9H40.48a1.68,1.68,0,0,1-1.68-1.68V16.1a1.68,1.68,0,0,1,1.68-1.68h2.66V11.76a1.68,1.68,0,0,1,1.68-1.68h1.12a1.68,1.68,0,0,1,1.68,1.68v2.66h2.66a1.68,1.68,0,0,1,1.68,1.68v1.12Zm0,0"/><path class="cls-1" d="M53.38,29a6.73,6.73,0,0,0-6.73,6.73v0a6.73,6.73,0,0,0,13.47,0v0A6.73,6.73,0,0,0,53.38,29Zm0,10.31A3.58,3.58,0,1,1,57,35.78a3.58,3.58,0,0,1-3.58,3.58Zm0,0"/><path class="cls-3" d="M57,35.78a3.67,3.67,0,1,1-3.67-3.67A3.67,3.67,0,0,1,57,35.78Zm0,0"/><path class="cls-2" d="M20.56,1.55a1.79,1.79,0,0,0-2-1.55,1.79,1.79,0,0,0-2,1.55v2h3.93Zm0,0"/><path class="cls-3" d="M50.27,14.43H47.61V11.76a1.68,1.68,0,0,0-1.68-1.68H44.81a1.68,1.68,0,0,0-1.68,1.68v2.66H40.48A1.68,1.68,0,0,0,38.8,16.1v1.12a1.68,1.68,0,0,0,1.68,1.68h2.66v2.66a1.68,1.68,0,0,0,1.68,1.68h1.12a1.68,1.68,0,0,0,1.68-1.68V18.9h2.66a1.68,1.68,0,0,0,1.68-1.68V16.1a1.67,1.67,0,0,0-1.68-1.68Zm0,0"/></svg>