<svg id="Layer_1" data-name="Layer 1" xmlns="http://www.w3.org/2000/svg" viewBox="0 0 107.76 36.84"><defs><style>.cls-1{fill:#00aeef;}.cls-1,.cls-2,.cls-4{fill-rule:evenodd;}.cls-2{fill:#a6ce39;}.cls-3,.cls-4{fill:#006cb7;}.cls-5{fill:#ee4044;}</style></defs><title>fonasa</title><path class="cls-1" d="M18.29,20C12.07,9.34-2,20.07,3.2,34.52-8.49,17.28,15.22.69,20.57,16.68,20.84,17.47,18.63,20.6,18.29,20Z"/><path class="cls-1" d="M9.09,4.61c-.57,2.77,1,5.22,3.52,5.46s5-1.82,5.59-4.59S17.2.26,14.68,0,9.66,1.83,9.09,4.61Z"/><path class="cls-2" d="M21,11.55c-.76-2.47.13-4.93,2-5.5s4,1,4.75,3.45-.13,4.93-2,5.5S21.81,14,21,11.55Z"/><ellipse class="cls-3" cx="9.55" cy="17.74" rx="3.2" ry="2.71" transform="translate(-10.56 16.44) rotate(-58.03)"/><path class="cls-3" d="M5.15,23.37c2.32-3,7-3.31,10.84-1a8.92,8.92,0,0,0-9.31,3A8.56,8.56,0,0,0,5,31.62C3.42,28.82,3.39,25.63,5.15,23.37Z"/><path class="cls-2" d="M24.75,32.59A7.53,7.53,0,0,1,16,25a10.2,10.2,0,0,1,8.82-9.76,7.53,7.53,0,0,1,8.75,7.61A10.2,10.2,0,0,1,24.75,32.59ZM32,23.93a6.4,6.4,0,0,0-7.43-6.47A8.67,8.67,0,0,0,17,25.76a6.4,6.4,0,0,0,7.44,6.47A8.67,8.67,0,0,0,32,23.93Z"/><path class="cls-1" d="M17.87,23.5s3.25,4,10.07,3.18c0,0,5.09-1,6.72,1.68,0,0-6.24,2.29-11.68-.19A10.73,10.73,0,0,1,17.87,23.5Z"/><path class="cls-1" d="M23.16,22.43a3.35,3.35,0,0,0-3.72-.79c-1.1.57-1.22,1.86-.26,2.87a3.35,3.35,0,0,0,3.72.79A1.71,1.71,0,0,0,23.16,22.43Z"/><path class="cls-4" d="M46.33,24.66,41,17.38h7.67v.07l-.17.67a1.47,1.47,0,0,1-.66.66H43.16a2.16,2.16,0,0,0-2.4,1.5l-1.11,4.37h6.68l-.24.89a1.51,1.51,0,0,1-.8.63h-6l-2.12,8.55h-1a1.2,1.2,0,0,1-1-1l3.68-14.63A2,2,0,0,1,41,17.38Z"/><path class="cls-4" d="M62.22,31.32H60L61.77,24c.3-1.12.55-2.39.69-3.22h2l-.4,2.26h.05A6.32,6.32,0,0,1,69,20.88c1.55,0,3.31.69,3.31,2.79a7.23,7.23,0,0,1-.24,1.62l-1.5,6c-1.52,0-1.9-.62-2-1.14l1.2-4.83A6.39,6.39,0,0,0,70,24.06c0-1-.52-1.75-2.06-1.75a5.14,5.14,0,0,0-4.48,4Z"/><path class="cls-4" d="M85.53,30.66a7.38,7.38,0,0,0,3.26.69c2.8,0,5-1.19,5-3.31,0-1.14-1-2-2.44-2.66-1.19-.5-1.82-1-1.82-1.68s1-1.52,2.36-1.52a5.66,5.66,0,0,1,2.25.46l.62-1.31a6.74,6.74,0,0,0-2.71-.5c-2.79,0-4.78,1.35-4.78,3.12,0,1,.84,1.91,2.36,2.56s1.85,1.08,1.85,1.87S90.52,30,89,30a7.15,7.15,0,0,1-2.82-.62Z"/><path class="cls-4" d="M82,30.13c.18-.72.36-1,.45-1.56h-.05a5.92,5.92,0,0,1-5.1,2.83c-2.33,0-3.77-1.41-3.77-3.33,0-3.51,3.37-7.2,9.06-7.2a17.15,17.15,0,0,1,3.53.37l-1.33,5.26a24.17,24.17,0,0,0-.95,4.8C82.41,31.29,82.07,30.64,82,30.13Zm.83-4.7C82.24,28.12,80,30,78.11,30a2,2,0,0,1-2.23-2.23c0-2.81,2.8-5.51,6.19-5.51a6.3,6.3,0,0,1,1.55.15Z"/><path class="cls-4" d="M103.65,30.13c.18-.72.36-1,.45-1.61H104a5.92,5.92,0,0,1-5.1,2.83c-2.34,0-3.77-1.41-3.77-3.33,0-3.51,3.37-7.2,9.06-7.2a17.11,17.11,0,0,1,3.53.38l-1.33,5.26a24.63,24.63,0,0,0-.94,4.85C104,31.29,103.69,30.64,103.65,30.13Zm.83-4.75c-.62,2.68-2.85,4.56-4.75,4.56a2,2,0,0,1-2.23-2.23c0-2.81,2.8-5.51,6.19-5.51a6.26,6.26,0,0,1,1.55.15Z"/><path class="cls-4" d="M52.67,31.35c4.4,0,7.27-3.22,7.27-6.34,0-2.12-1.6-4.18-5.16-4.18-4.26,0-7.27,3.06-7.27,6.38,0,2.27,1.85,4.14,5.13,4.14ZM52.89,30a2.8,2.8,0,0,1-3.07-2.83,4.94,4.94,0,0,1,4.69-4.95A2.76,2.76,0,0,1,57.58,25c0,2.35-2,5-4.67,5Z"/><rect class="cls-3" x="48.23" y="34.56" width="25.73" height="2.28"/><rect class="cls-5" x="73.96" y="34.56" width="31.47" height="2.28"/></svg>