<svg id="Layer_1" data-name="Layer 1" xmlns="http://www.w3.org/2000/svg" viewBox="0 0 8.99 10"><defs><style>.cls-1{fill:#935e9b;}</style></defs><title>gricel</title><rect class="cls-1" x="1.63" width="0.74" height="0.74" rx="0.31" ry="0.31"/><rect class="cls-1" x="2.38" y="0.74" width="0.74" height="0.74" rx="0.31" ry="0.31"/><rect class="cls-1" x="1.63" y="1.49" width="0.74" height="0.74" rx="0.31" ry="0.31"/><rect class="cls-1" x="4.08" width="0.74" height="0.74" rx="0.31" ry="0.31"/><rect class="cls-1" x="4.82" y="0.74" width="0.74" height="0.74" rx="0.31" ry="0.31"/><rect class="cls-1" x="4.08" y="1.49" width="0.74" height="0.74" rx="0.31" ry="0.31"/><path class="cls-1" d="M8.72,3.77h-1v-1H.56v.83h0V4.2h0v5h0s0,0,0,0h0v0h0v0h0l0,.09h0v0h0l0,0h0l0,.09h0l0,0h0l0,0h0l.1.11h0a.83.83,0,0,0,.54.2H7a.83.83,0,0,0,.79-.57V9h1a.83.83,0,0,0,.83-.83V7.94h0v-1h0v-1h0v-1h0V4.6A.83.83,0,0,0,8.72,3.77Zm-2.59,3h0v.79h0v.16a.63.63,0,0,1-.63.63H2.2v-4H5.5A.63.63,0,0,1,6.13,5v.16H3V7.56H5.34V6.77H4.12V6h2ZM8.51,4.82v1h0v1h0v1H7.77V4.81h.75Z" transform="translate(-0.56)"/></svg>