<svg id="Layer_1" data-name="Layer 1" xmlns="http://www.w3.org/2000/svg" viewBox="0 0 20.04 15.92"><defs><style>.cls-1{fill:#fff;}</style></defs><title>icon_sitemap</title><path class="cls-1" d="M19,11.53h-.58V9.27A1.62,1.62,0,0,0,16.8,7.65h-6.2V5.21h2.92a.85.85,0,0,0,.85-.85V.85A.85.85,0,0,0,13.52,0h-7a.85.85,0,0,0-.85.85V4.37a.85.85,0,0,0,.85.85H9.44V7.65H3.24A1.62,1.62,0,0,0,1.62,9.27v2.26H1a1,1,0,0,0-1,1v2.31a1,1,0,0,0,1,1H3.35a1,1,0,0,0,1-1V12.57a1,1,0,0,0-1-1H2.77V9.27a.47.47,0,0,1,.47-.47h6.2v2.73H8.86a1,1,0,0,0-1,1v2.31a1,1,0,0,0,1,1h2.31a1,1,0,0,0,1-1V12.57a1,1,0,0,0-1-1h-.58V8.8h6.2a.47.47,0,0,1,.47.47v2.26h-.58a1,1,0,0,0-1,1v2.31a1,1,0,0,0,1,1H19a1,1,0,0,0,1-1V12.57a1,1,0,0,0-1-1Zm0,0"/></svg>