<svg id="Layer_1" data-name="Layer 1" xmlns="http://www.w3.org/2000/svg" viewBox="0 0 20 20"><defs><style>.cls-1{fill:#fff;}</style></defs><title>icon_heart</title><path class="cls-1" d="M12.95,13.23a.3.3,0,0,1-.58,0l-.59-4.24L11,12.19a.3.3,0,0,1-.29.23h0a.3.3,0,0,1-.29-.23L9.91,10l-1,3.65a.3.3,0,0,1-.28.22h0a.3.3,0,0,1-.27-.27l-.5-5.81L6.62,11.1a.3.3,0,0,1-.28.2H0A2.55,2.55,0,0,0,2.55,13.4h4v4A2.55,2.55,0,0,0,9.15,20h1.7a2.55,2.55,0,0,0,2.55-2.55v-4h4A2.55,2.55,0,0,0,20,11.26H13.56Zm0,0" transform="translate(0 0)"/><path class="cls-1" d="M6,10.57,7.6,6.22a.43.43,0,0,1,.84.11l.41,4.78.68-2.47a.43.43,0,0,1,.84,0l.36,1.58.71-3a.43.43,0,0,1,.85,0l.54,3.88.1-.33a.43.43,0,0,1,.41-.3H20V9.15A2.55,2.55,0,0,0,17.45,6.6h-4v-4A2.55,2.55,0,0,0,10.85,0H9.15A2.55,2.55,0,0,0,6.6,2.55v4h-4A2.55,2.55,0,0,0,0,9.15v1.42Z" transform="translate(0 0)"/></svg>