<svg id="Layer_1" data-name="Layer 1" xmlns="http://www.w3.org/2000/svg" viewBox="0 0 11.19 15.92"><defs><style>.cls-1{fill:#fff;}</style></defs><title>icon_faq</title><path class="cls-1" d="M6.21,13H5a.83.83,0,0,0-.86.87v1.18a.83.83,0,0,0,.86.86H6.22a.83.83,0,0,0,.86-.87V13.87A.83.83,0,0,0,6.21,13Z"/><path class="cls-1" d="M5.6,0h0A5.6,5.6,0,0,0,0,5.61a4.62,4.62,0,0,0,.07.93.87.87,0,0,0,.41.6.85.85,0,0,0,.71.08l1.1-.35A.81.81,0,0,0,2.91,6V5.6A2.66,2.66,0,0,1,5.59,2.91h0A2.66,2.66,0,0,1,8.28,5.59c0,.86-.47,1.32-1.55,2.16l-.13.11a5.62,5.62,0,0,0-2.44,3.55.8.8,0,0,0,.19.66.88.88,0,0,0,.67.3H6.21a.83.83,0,0,0,.85-.67c.14-.53.63-1,1.37-1.59L8.56,10c1.11-.89,2.64-2.1,2.63-4.42A5.6,5.6,0,0,0,5.6,0Z"/></svg>