<svg id="Layer_1" data-name="Layer 1" xmlns="http://www.w3.org/2000/svg" xmlns:xlink="http://www.w3.org/1999/xlink" viewBox="0 0 247 45.11"><defs><style>.cls-1{fill:none;}.cls-2{fill:#fff;}.cls-3{clip-path:url(#clip-path);}.cls-4{clip-path:url(#clip-path-2);}</style><clipPath id="clip-path"><rect class="cls-1" x="180.03" y="0.28" width="46.21" height="49.69"/></clipPath><clipPath id="clip-path-2"><rect class="cls-1" x="190.82" y="8.99" width="46.21" height="49.69"/></clipPath></defs><title>logo_white</title><path class="cls-2" d="M12.11.64,23.47,25h-2.6L17,17H6.53l-3.8,8H0L11.52.64Zm-.3,5.16L7.61,14.65H16Z"/><path class="cls-2" d="M22.24.71h2.83l6.23,10,6.12-10h2.81L32.51,13.43V25.08h-2.4V13.43Z"/><path class="cls-2" d="M44.28.31h2.43V15a26.57,26.57,0,0,0,.12,3.27,5.39,5.39,0,0,0,.84,2.41,4.93,4.93,0,0,0,2,1.61,6.41,6.41,0,0,0,2.77.65,7,7,0,0,0,3.3-.21,4.79,4.79,0,0,0,2.84-1.57,7.21,7.21,0,0,0,1.09-2.36A17.11,17.11,0,0,0,60,15V.31H62.4V15a17.87,17.87,0,0,1-.64,5.28,7.18,7.18,0,0,1-2.56,3.5q-1.92,1.49-6.6,1.49a8.83,8.83,0,0,1-5.05-1.41,6.79,6.79,0,0,1-2.8-3.72A19.4,19.4,0,0,1,44.28,15Z"/><path class="cls-2" d="M68,25V.64h5a25.71,25.71,0,0,1,8,.89,10.57,10.57,0,0,1,5.53,4.3,13.09,13.09,0,0,1,2,7.31A12.83,12.83,0,0,1,87,19.58a10.14,10.14,0,0,1-4.11,4.12A15.46,15.46,0,0,1,75.78,25Zm2.33-2.32h2.81a26.6,26.6,0,0,0,7-.62,8.07,8.07,0,0,0,4.32-3.21,9.91,9.91,0,0,0,1.58-5.7,10.46,10.46,0,0,0-1.7-6,8.54,8.54,0,0,0-4.76-3.42A28.45,28.45,0,0,0,72.08,3H70.35Z"/><path class="cls-2" d="M103.21.64,114.57,25H112l-3.83-8H97.62l-3.8,8H91.1L102.62.64Zm-.3,5.16-4.21,8.84h8.35Z"/><path class="cls-2" d="M120.37,22.51a.51.51,0,0,0,.31.42,7.21,7.21,0,0,0,3.58.88,6.28,6.28,0,0,0,4.39-1.5,4.09,4.09,0,0,0,1.23-3.08c0-3.35-1.81-3.92-5.54-5.66-3.39-1.54-5.81-3.31-5.81-6.66A6.73,6.73,0,0,1,121,1.81,10.12,10.12,0,0,1,127.29,0,12,12,0,0,1,132,.85c.19,1.85.35,3.85.46,5.69-.69.08-1.42.19-2.15.27l-.65-3.62a.86.86,0,0,0-.27-.46A4.65,4.65,0,0,0,126.52,2a5.51,5.51,0,0,0-3.62,1.15,4.2,4.2,0,0,0-1.46,3.19c0,2.69,1.27,3.31,5.27,5.08,3.85,1.69,6.08,3.39,6.08,6.89a6.89,6.89,0,0,1-2.27,5.35c-1.54,1.42-3.73,2.15-6.89,2.15a17.59,17.59,0,0,1-5.66-.92c-.19-2-.35-4.12-.5-6.08.73-.12,1.5-.23,2.19-.31Z"/><path class="cls-2" d="M136.8,23.51a.2.2,0,0,0,.19-.15c2.69-6.89,6.27-16.43,8.93-23.28C146.34,0,147.18,0,148,0c2.58,6.93,5.92,16.54,8.42,23.51l2.35.12c0,.54,0,1.19,0,1.77h-3.62c-1.77,0-3.54,0-5.08,0,0-.62,0-1.23,0-1.81l3-.12c.08,0,.12-.08.08-.19-.62-1.73-1.35-3.89-2-5.54,0-.15-.12-.19-.27-.19l-9.19,0c-.62,1.85-1.42,4.12-2,5.89l3.46.12c0,.54,0,1.19,0,1.77H138c-1.12,0-2.35,0-3.39,0,0-.62,0-1.23,0-1.81Zm9.7-19.16c-1.31,3.5-2.81,7.77-4.08,11.16,0,.15,0,.23.08.23l8.08,0c-1.19-3.54-2.69-7.89-3.92-11.43Z"/><path class="cls-2" d="M160.69,2.19c0-.62,0-1.23.08-1.81h9.39c0,.58,0,1.23,0,1.81l-3.39.08c-.08,0-.08,0-.08.15l-.12,20.35c0,.69,0,.81,1.65.81a40.42,40.42,0,0,0,6.16-.23c.35-.08.54-.35.69-.81l1.39-4a14,14,0,0,1,2,.46c-.38,1.89-1,4.42-1.5,6.46-1.81,0-6.5,0-11.7,0-1.62,0-3.15,0-4.54,0,0-.58,0-1.23,0-1.81l2.65-.12c.08,0,.12,0,.12-.15l0-21.08Z"/><path class="cls-2" d="M206.2,23.62l2.65-.08c.11,0,.15-.08.15-.19l0-21-2.89-.12c0-.58,0-1.23,0-1.77,2.08,0,5-.08,7.92-.08,4.69,0,7.19.65,9.5,2A11.14,11.14,0,0,1,229,12.12c0,4.46-1.65,8.46-4.81,10.81a14.63,14.63,0,0,1-8.93,2.5c-1.54,0-3.65,0-4.58,0-1.35,0-3,0-4.5,0C206.16,24.85,206.16,24.2,206.2,23.62Zm5.89-1.39c0,1,.31,1.39,2.92,1.39,3.46,0,6-.92,7.69-2.42a11.1,11.1,0,0,0,3-7.93c0-4.27-1-6.62-3.46-8.77C220.55,3,218,2.12,214.47,2.12a10.8,10.8,0,0,0-2.31.15Z"/><g class="cls-3"><path class="cls-2" d="M193,24.41A12,12,0,0,0,204,12.5v-11A1.25,1.25,0,0,0,202.8.28h-3.93a1.24,1.24,0,0,0,0,2.49h2.7V12.5a9.52,9.52,0,0,1-19,0V2.77h2.9a1.24,1.24,0,0,0,0-2.49h-4.15A1.24,1.24,0,0,0,180,1.52v11a12,12,0,0,0,10.46,11.85m32.66,14.19h0m-1.49,6.56"/></g><polygon class="cls-2" points="231.7 34.81 229.41 33.81 227.13 32.82 230.36 31.51 233.58 30.2 232.64 32.5 231.7 34.81"/><path class="cls-2" d="M244.07,25.35l-.84.53a3.51,3.51,0,0,0-3-1.46,3.45,3.45,0,0,0-2.51,1,3.17,3.17,0,0,0-1,2.36,3.38,3.38,0,0,0,.46,1.7,3.19,3.19,0,0,0,1.25,1.24,3.67,3.67,0,0,0,1.79.44,3.63,3.63,0,0,0,3-1.44l.84.55a4,4,0,0,1-1.59,1.37,5.13,5.13,0,0,1-2.27.48A4.48,4.48,0,0,1,237,30.84a4,4,0,0,1-1.29-3A4.35,4.35,0,0,1,237.94,24a4.82,4.82,0,0,1,2.36-.57,5.06,5.06,0,0,1,1.57.25,4.39,4.39,0,0,1,1.3.65A3.47,3.47,0,0,1,244.07,25.35Z"/><path class="cls-2" d="M245.93,20.65H247V32.07h-1.07Z"/><g class="cls-4"><path class="cls-2" d="M193.29,23.64l5.09,12.08c2,4.78,7.28,7.13,11.76,5.25s6.48-7.3,4.47-12.08l-2.19-5.17c-1.48-3.51-.07-7.47,3.14-8.83s7,.41,8.5,3.92l2.5,5.92a.18.18,0,0,0,.06.07,4.7,4.7,0,1,0,2.3-.77h0a2.05,2.05,0,0,0-.06-.26l-2.5-5.93c-2-4.77-7.28-7.13-11.76-5.25s-6.47,7.3-4.45,12.08l2.18,5.18c1.48,3.52.07,7.48-3.14,8.83s-7-.4-8.5-3.92l-5.07-12m34.46,7.94a2.18,2.18,0,1,1,1.16-2.84,2.19,2.19,0,0,1-1.16,2.84Zm0,0"/></g><path class="cls-2" d="M223.71,2.39c-2.24-1.35-4.67-2-9.11-2a4.72,4.72,0,0,1,.48,1.48,2.31,2.31,0,0,1,0,.3,11.2,11.2,0,0,1,7.25,2.38c2.42,2.15,3.46,4.5,3.46,8.77a11.22,11.22,0,0,1-2.9,7.79,4.9,4.9,0,0,1,1.49,1.73c3-2.36,4.63-6.29,4.63-10.67A11.14,11.14,0,0,0,223.71,2.39Z"/><path class="cls-2" d="M117.48,39.69l.76-4.34h1l-.46,4.34Zm2.1-6.69a.69.69,0,0,1,.2.5.85.85,0,0,1-.25.62.83.83,0,0,1-.61.26.66.66,0,0,1-.5-.2.71.71,0,0,1-.2-.51.84.84,0,0,1,.25-.61.82.82,0,0,1,.6-.26A.67.67,0,0,1,119.58,33Z"/><path class="cls-2" d="M124.34,31a2.68,2.68,0,0,1,.92.63l-.72.7a2.14,2.14,0,0,0-.64-.43,1.91,1.91,0,0,0-.73-.14,1.42,1.42,0,0,0-.85.24.78.78,0,0,0-.34.66.65.65,0,0,0,.11.38,1,1,0,0,0,.36.29,4.94,4.94,0,0,0,.73.3,3.38,3.38,0,0,1,1.3.7,1.55,1.55,0,0,1,.45,1.19,2.26,2.26,0,0,1-.27,1.06,2.18,2.18,0,0,1-.9.87,3.26,3.26,0,0,1-1.61.35,3,3,0,0,1-2.32-.95l.76-.74a2.1,2.1,0,0,0,1.58.67,1.66,1.66,0,0,0,1-.3,1,1,0,0,0,.4-.8.79.79,0,0,0-.25-.61,2.68,2.68,0,0,0-.89-.45,3.28,3.28,0,0,1-1.35-.73,1.53,1.53,0,0,1-.43-1.13,1.83,1.83,0,0,1,.27-.94,2.05,2.05,0,0,1,.83-.76,2.93,2.93,0,0,1,1.4-.3A3.11,3.11,0,0,1,124.34,31Z"/><path class="cls-2" d="M129.34,35.2a7,7,0,0,1-2.42.6q0,1.08,1,1.08a2,2,0,0,0,.67-.11,2.66,2.66,0,0,0,.67-.37l.48.78a3.34,3.34,0,0,1-2,.66,2.09,2.09,0,0,1-1.58-.57,2.18,2.18,0,0,1-.55-1.58,4.29,4.29,0,0,1,.29-1.54,2.94,2.94,0,0,1,.92-1.26,2.48,2.48,0,0,1,1.6-.51,2.32,2.32,0,0,1,1,.19,1.4,1.4,0,0,1,.61.5,1.22,1.22,0,0,1,.21.68A1.51,1.51,0,0,1,129.34,35.2Zm-.86-.6a.88.88,0,0,0,.49-.78.55.55,0,0,0-.14-.38.59.59,0,0,0-.46-.16,1.09,1.09,0,0,0-.95.49A2.9,2.9,0,0,0,127,35,3.77,3.77,0,0,0,128.48,34.6Z"/><path class="cls-2" d="M134.7,36.4a.36.36,0,0,0,.42.43,1.36,1.36,0,0,0,.65-.2l.35.84a2.42,2.42,0,0,1-1.31.37,1.38,1.38,0,0,1-1-.34,1.32,1.32,0,0,1-.35-1,2.7,2.7,0,0,1,0-.38l.38-2.7h-.8l.13-.9H134l.32-1.17,1-.12-.19,1.29h1.19l-.25.9H135.1l-.38,2.71Q134.7,36.33,134.7,36.4Z"/><path class="cls-2" d="M140.5,32.48l-.36,1.2a1.78,1.78,0,0,0-.43-.06,1,1,0,0,0-.78.39,3.77,3.77,0,0,0-.59,1.14L138,37.7h-1.23l.72-5.16h1.06l0,1a2.3,2.3,0,0,1,.66-.85,1.34,1.34,0,0,1,.82-.29A1.81,1.81,0,0,1,140.5,32.48Z"/><path class="cls-2" d="M145.28,32.89l-.53,3.46c0,.12,0,.19,0,.21a.47.47,0,0,0,.07.28A.49.49,0,0,0,145,37l-.35.82a1.07,1.07,0,0,1-1.07-.86,1.85,1.85,0,0,1-1.53.88,1.49,1.49,0,0,1-1.23-.54,2.3,2.3,0,0,1-.43-1.48,4.48,4.48,0,0,1,.3-1.59,3.07,3.07,0,0,1,.94-1.32,2.49,2.49,0,0,1,1.63-.53A4.32,4.32,0,0,1,145.28,32.89Zm-2.9.8a2.33,2.33,0,0,0-.51,1,4.35,4.35,0,0,0-.16,1.17q0,1.07.73,1.07a.94.94,0,0,0,.59-.21,2.81,2.81,0,0,0,.56-.61l.4-2.63a1.7,1.7,0,0,0-.34-.11,2,2,0,0,0-.37,0A1.15,1.15,0,0,0,142.38,33.7Z"/><path class="cls-2" d="M147.53,36.4a.36.36,0,0,0,.42.43,1.36,1.36,0,0,0,.65-.2l.35.84a2.42,2.42,0,0,1-1.31.37,1.38,1.38,0,0,1-1-.34,1.32,1.32,0,0,1-.35-1,2.7,2.7,0,0,1,0-.38l.38-2.7h-.8l.13-.9h.85l.32-1.17,1-.12L148,32.54h1.19l-.25.9h-1.05l-.38,2.71Q147.53,36.33,147.53,36.4Z"/><path class="cls-2" d="M154.33,32.89l-.53,3.46c0,.12,0,.19,0,.21a.47.47,0,0,0,.07.28.49.49,0,0,0,.23.16l-.35.82a1.07,1.07,0,0,1-1.07-.86,1.85,1.85,0,0,1-1.53.88,1.49,1.49,0,0,1-1.23-.54,2.3,2.3,0,0,1-.43-1.48,4.48,4.48,0,0,1,.3-1.59,3.07,3.07,0,0,1,.94-1.32,2.49,2.49,0,0,1,1.63-.53A4.32,4.32,0,0,1,154.33,32.89Zm-2.9.8a2.33,2.33,0,0,0-.51,1,4.35,4.35,0,0,0-.16,1.17q0,1.07.73,1.07a.94.94,0,0,0,.59-.21,2.81,2.81,0,0,0,.56-.61l.4-2.63a1.7,1.7,0,0,0-.34-.11,2,2,0,0,0-.37,0A1.15,1.15,0,0,0,151.43,33.7Z"/><path class="cls-2" d="M161.71,37.7h-1.09v-.79a2.22,2.22,0,0,1-.66.68,1.58,1.58,0,0,1-.88.25,1.43,1.43,0,0,1-1.21-.55,2.47,2.47,0,0,1-.41-1.52,5,5,0,0,1,.25-1.55,3.11,3.11,0,0,1,.81-1.31,2,2,0,0,1,1.4-.53,1.52,1.52,0,0,1,1.21.57l.37-2.62,1.22.14Zm-2.38-4a2.5,2.5,0,0,0-.45,1,4.79,4.79,0,0,0-.14,1.12q0,1.08.7,1.08a1,1,0,0,0,.66-.27,3.59,3.59,0,0,0,.62-.79l.28-2a1.18,1.18,0,0,0-.38-.37,1,1,0,0,0-.49-.12A1,1,0,0,0,159.33,33.73Z"/><path class="cls-2" d="M166.81,35.2a7,7,0,0,1-2.42.6q0,1.08,1,1.08a2,2,0,0,0,.67-.11,2.66,2.66,0,0,0,.67-.37l.48.78a3.34,3.34,0,0,1-2,.66,2.09,2.09,0,0,1-1.58-.57,2.18,2.18,0,0,1-.55-1.58,4.29,4.29,0,0,1,.29-1.54,2.94,2.94,0,0,1,.92-1.26,2.48,2.48,0,0,1,1.6-.51,2.32,2.32,0,0,1,1,.19,1.4,1.4,0,0,1,.61.5,1.22,1.22,0,0,1,.21.68A1.51,1.51,0,0,1,166.81,35.2Zm-.86-.6a.88.88,0,0,0,.49-.78.55.55,0,0,0-.14-.38.59.59,0,0,0-.46-.16,1.09,1.09,0,0,0-.95.49,2.9,2.9,0,0,0-.46,1.22A3.77,3.77,0,0,0,166,34.6Z"/><path class="cls-2" d="M171.6,37.7l-1-5.16H172l.52,4.16,1.66-4.16h1.32l-2.38,5.16Z"/><path class="cls-2" d="M175.49,37.7l.72-5.16h1.24l-.72,5.16Zm2.18-7.58a.67.67,0,0,1,.19.49.79.79,0,0,1-.24.59.83.83,0,0,1-.6.24.69.69,0,0,1-.51-.19.67.67,0,0,1-.19-.49.79.79,0,0,1,.24-.59.83.83,0,0,1,.6-.24A.69.69,0,0,1,177.67,30.12Z"/><path class="cls-2" d="M179.16,37.7l-1-5.16h1.33L180,36.7l1.66-4.16H183l-2.38,5.16Z"/><path class="cls-2" d="M183,37.7l.72-5.16H185l-.72,5.16Zm2.18-7.58a.67.67,0,0,1,.19.49.79.79,0,0,1-.24.59.83.83,0,0,1-.6.24.69.69,0,0,1-.51-.19.67.67,0,0,1-.19-.49.79.79,0,0,1,.24-.59.83.83,0,0,1,.6-.24A.69.69,0,0,1,185.23,30.12Z"/><path class="cls-2" d="M189.52,32.48l-.36,1.2a1.78,1.78,0,0,0-.43-.06,1,1,0,0,0-.78.39,3.77,3.77,0,0,0-.59,1.14L187,37.7h-1.23l.72-5.16h1.06l0,1a2.3,2.3,0,0,1,.66-.85,1.34,1.34,0,0,1,.82-.29A1.81,1.81,0,0,1,189.52,32.48Z"/><path class="cls-2" d="M190.64,36.47a.69.69,0,0,1,.2.5.85.85,0,0,1-.26.62.83.83,0,0,1-.61.26.66.66,0,0,1-.5-.2.71.71,0,0,1-.2-.51.84.84,0,0,1,.25-.61.82.82,0,0,1,.6-.26A.67.67,0,0,1,190.64,36.47Zm-.89-1.15.47-4.36h1.33l-.77,4.36Z"/></svg>