<svg xmlns="http://www.w3.org/2000/svg" viewBox="0 0 258 100"><defs><style>.cls-1{fill:#fff;}.cls-2{fill:#ef9408;}</style></defs><title>mpago</title><g id="Layer_5" data-name="Layer 5"><path class="cls-1" d="M146.95,50.41q-.2,3-3,3h-3a3,3,0,0,1-3-3V42.9a2.92,2.92,0,0,1,.87-2.1,2.85,2.85,0,0,1,2.13-.89h3q2.83,0,3,3h-1.5q-.18-1.49-1.49-1.49h-1.5a1.45,1.45,0,0,0-1.06.44,1.43,1.43,0,0,0-.44,1.05v7.51a1.51,1.51,0,0,0,1.5,1.49H144q1.32,0,1.49-1.49Z"/><path class="cls-1" d="M149.94,53.41V39.91h3v6h3v-6h3v13.5h-3v-6h-3v6Z"/><path class="cls-1" d="M161.94,53.41V39.91h7.5v1.5h-4.5v4.5h3V47.4h-3v4.5h4.5v1.5Z"/><path class="cls-1" d="M177.69,53.41h-2.25a3,3,0,0,1-3-3V42.9a3,3,0,0,1,3-3h3a3,3,0,0,1,3,3v7.51q0,2.65-3,3h3v1.5h-2.25Q177.86,54.91,177.69,53.41Zm-2.25-10.5v7.51a1.5,1.5,0,0,0,3,0V42.9a1.42,1.42,0,0,0-.45-1.05,1.5,1.5,0,0,0-2.12,0A1.43,1.43,0,0,0,175.44,42.9Z"/><path class="cls-1" d="M190.44,39.91h3v10.5a3,3,0,0,1-3,3h-3a3,3,0,0,1-3-3V39.91h3v10.5a1.5,1.5,0,0,0,3,0Z"/><path class="cls-1" d="M196.43,53.41V39.91h7.5v1.5h-4.5v4.5h3V47.4h-3v4.5h4.5v1.5Z"/><path class="cls-2" d="M99.42,42.55l9.77,3.59-8.12,22.14c-.77,2.08-4.89,8.59-7.76,9.92l-.69,1.9a1.21,1.21,0,0,1-1.13.78,1.16,1.16,0,0,1-.41-.07,1.18,1.18,0,0,1-.71-1.52L91,77.47c-1.46-2.82-.37-11.05.27-12.79Zm14.14-23.42c-2.68-1-5.83,1.05-6.73,3.51l-5.88,16,9.77,3.59,5.88-16c.74-2-.33-6.1-3-7.09ZM95.88,41.71a2.47,2.47,0,0,0,.83.15,2.37,2.37,0,0,0,2.23-1.56l6.21-16.75a2.38,2.38,0,0,0-4.47-1.66L94.47,38.66a2.38,2.38,0,0,0,1.41,3.06Zm-10,31.42a9.32,9.32,0,0,0-2.74-1.94,7,7,0,0,0-2.86-.51H80a3.67,3.67,0,0,0-2.87-2.43,5.81,5.81,0,0,0-4.49,1.19c.1-.53.25-1.16.36-1.62a10.44,10.44,0,0,0,.47-4.42,2.55,2.55,0,0,0-2.33-2c-2.94-.16-5.36,1.42-7.49,2.86s-3.66,2.41-5.09,1.9c-1.75-.62-1.92-5.33-1.08-9.52.74-3.79,2.14-10.82,5.71-14,1.2-1.07,2.93-2.24,4.37-1.67,1.68.66,3.07,3.43,3.38,6.72A2.54,2.54,0,0,0,76,47.16c-.51-5.38-3-9.58-6.57-11-2.13-.83-5.52-1.05-9.62,2.61-4.46,4-6.1,10.77-7.3,16.8-.6,3-2.06,13,4.36,15.29,3.91,1.38,7.08-.75,9.63-2.48.46-.32.92-.63,1.36-.9-.42,1.84-.68,3.8.43,5.46,1.65,2.5,4,2.76,6.95.82l.37-.25a3.35,3.35,0,0,0,1.63,1.64,6.45,6.45,0,0,0,2.91.57,4.09,4.09,0,0,1,.93.09,4.25,4.25,0,0,1,1.3,1A14.56,14.56,0,0,0,83.79,78a2.52,2.52,0,0,0,3.54-.51A2.53,2.53,0,0,0,86.82,74c-.37-.29-.66-.57-.94-.83Zm0,0"/></g></svg>