<svg xmlns="http://www.w3.org/2000/svg" xmlns:xlink="http://www.w3.org/1999/xlink" viewBox="0 0 258 100"><defs><style>.cls-1{fill:none;}.cls-2{clip-path:url(#clip-path);}.cls-3{fill:#e00639;}.cls-4{fill:#fff;}</style><clipPath id="clip-path"><rect class="cls-1" x="12.75" y="19.21" width="65.34" height="61.58"/></clipPath></defs><title>mpago</title><g id="Layer_5" data-name="Layer 5"><g class="cls-2"><path class="cls-3" d="M72.78,19.21H18.09a5.34,5.34,0,0,0-5.34,5.34V61.64A5.35,5.35,0,0,0,18.1,67H36.46v7.16H33.38a3,3,0,0,0-2.73,1.65,3.27,3.27,0,0,0,2.91,4.83H57.63A3,3,0,0,0,60.36,79a3.27,3.27,0,0,0-2.91-4.83h-2.9V67h18.2a5.34,5.34,0,0,0,5.34-5.34V24.55a5.33,5.33,0,0,0-5.31-5.34ZM65,63.7a1.49,1.49,0,1,1,1.49-1.49A1.48,1.48,0,0,1,65,63.7Zm6.57.36a1.84,1.84,0,1,1,1.84-1.84,1.84,1.84,0,0,1-1.84,1.84Zm2.14-5.44H17v-34a1,1,0,0,1,1-1H72.69a1,1,0,0,1,1,1v34Zm.05-.11"/></g><path class="cls-4" d="M47.86,41.58l2.41-1.46A.62.62,0,0,0,50.15,39l-11-3.85a.62.62,0,0,0-.79.79l3.85,11a.62.62,0,0,0,1.11.12l1.46-2.4,4.52,4.52a.62.62,0,0,0,.87,0L52.38,47a.62.62,0,0,0,0-.87Zm0,0"/><path class="cls-4" d="M101.25,42.74v-12h-3v-1.5h9v1.5h-3v12Z"/><path class="cls-4" d="M108.76,42.74V29.24h6a3,3,0,0,1,3,3V33a3.21,3.21,0,0,1-.69,1.94,2.68,2.68,0,0,1-2.31.93h1.49a1.51,1.51,0,0,1,1.5,1.5v5.32h-3v-4.5a1.52,1.52,0,0,0-1.5-1.5h-1.5v6Zm3-7.5h1.5a1.53,1.53,0,0,0,1.5-1.5v-1.5a1.42,1.42,0,0,0-.45-1.05,1.46,1.46,0,0,0-1.06-.44h-1.5Z"/><path class="cls-4" d="M120.75,42.74V32.23a3,3,0,0,1,3-3h3a3,3,0,0,1,3,3v10.5h-3v-6h-3v6Zm3-7.5h3v-3a1.42,1.42,0,0,0-.45-1.05,1.5,1.5,0,0,0-2.12,0,1.43,1.43,0,0,0-.44,1.05Z"/><path class="cls-4" d="M132.75,42.74V29.24h.68l8.32,7.5v-7.5h1.5v13.5h-.69l-8.31-7.5v7.5Z"/><path class="cls-4" d="M153.74,32.23h-1.49q-.2-1.5-1.42-1.5a1.67,1.67,0,0,0-1.19.38,1.49,1.49,0,0,0-.4,1.13,1.55,1.55,0,0,0,.44,1.05l3.18,3.57a3.13,3.13,0,0,1,.88,2.12v.76a3,3,0,0,1-3,3h-1.5a2.65,2.65,0,0,1-3-3h1.5q0,.15,0,.25a1,1,0,0,0,.47.93,1.81,1.81,0,0,0,1,.32,1.49,1.49,0,0,0,1.15-.39,1.62,1.62,0,0,0,.35-1.12,1.53,1.53,0,0,0-.44-1.05l-3.18-3.56a3.11,3.11,0,0,1-.88-2.12v-.76a3,3,0,0,1,3-3h1.5Q153.56,29.24,153.74,32.23Z"/><path class="cls-4" d="M156.75,42.74V29.24h7.5v1.5h-4.5v4.5h3v1.49h-3v6Z"/><path class="cls-4" d="M167.26,42.74V29.24h7.5v1.5h-4.5v4.5h3v1.49h-3v4.5h4.5v1.5Z"/><path class="cls-4" d="M177.76,42.74V29.24h6a3,3,0,0,1,3,3V33a3.21,3.21,0,0,1-.69,1.94,2.68,2.68,0,0,1-2.31.93h1.49a1.51,1.51,0,0,1,1.5,1.5v5.32h-3v-4.5a1.52,1.52,0,0,0-1.5-1.5h-1.5v6Zm3-7.5h1.5a1.53,1.53,0,0,0,1.5-1.5v-1.5a1.42,1.42,0,0,0-.45-1.05,1.46,1.46,0,0,0-1.06-.44h-1.5Z"/><path class="cls-4" d="M189.76,42.74V29.24h7.5v1.5h-4.5v4.5h3v1.49h-3v4.5h4.5v1.5Z"/><path class="cls-4" d="M200.26,42.74V29.24h.68l8.32,7.5v-7.5h1.5v13.5h-.69l-8.31-7.5v7.5Z"/><path class="cls-4" d="M222.76,39.74q-.2,3-3,3h-3a3,3,0,0,1-3-3V32.23a2.92,2.92,0,0,1,.87-2.1,2.85,2.85,0,0,1,2.13-.89h3q2.83,0,3,3h-1.5q-.18-1.49-1.49-1.49h-1.5a1.45,1.45,0,0,0-1.06.44,1.43,1.43,0,0,0-.44,1.05v7.51a1.51,1.51,0,0,0,1.5,1.49h1.5q1.32,0,1.49-1.49Z"/><path class="cls-4" d="M227.25,42.74V29.24h3v13.5Z"/><path class="cls-4" d="M234.76,42.74V32.23a3,3,0,0,1,3-3h3a3,3,0,0,1,3,3v10.5h-3v-6h-3v6Zm3-7.5h3v-3a1.42,1.42,0,0,0-.45-1.05,1.5,1.5,0,0,0-2.12,0,1.43,1.43,0,0,0-.44,1.05Z"/><path class="cls-4" d="M99.76,64.34V50.84h7.5v1.5h-4.5v4.5h3v1.49h-3v4.5h4.5v1.5Z"/><path class="cls-4" d="M110.26,64.34V50.84h3v12h4.5v1.5Z"/><path class="cls-4" d="M120.77,64.34V50.84h7.5v1.5h-4.5v4.5h3v1.49h-3v4.5h4.5v1.5Z"/><path class="cls-4" d="M140.27,61.34q-.2,3-3,3h-3a3,3,0,0,1-3-3V53.83a2.92,2.92,0,0,1,.87-2.1,2.85,2.85,0,0,1,2.13-.89h3q2.83,0,3,3h-1.5q-.18-1.49-1.49-1.49h-1.5a1.45,1.45,0,0,0-1.06.44,1.43,1.43,0,0,0-.44,1.05v7.51a1.51,1.51,0,0,0,1.5,1.49h1.5q1.32,0,1.49-1.49Z"/><path class="cls-4" d="M144.76,64.34v-12h-3v-1.5h9v1.5h-3v12Z"/><path class="cls-4" d="M152.27,64.34V50.84h6a3,3,0,0,1,3,3v.82a3.21,3.21,0,0,1-.69,1.94,2.68,2.68,0,0,1-2.31.93h1.49a1.51,1.51,0,0,1,1.5,1.5v5.32h-3v-4.5a1.52,1.52,0,0,0-1.5-1.5h-1.5v6Zm3-7.5h1.5a1.53,1.53,0,0,0,1.5-1.5v-1.5a1.42,1.42,0,0,0-.45-1.05,1.46,1.46,0,0,0-1.06-.44h-1.5Z"/><path class="cls-4" d="M167.26,50.84h3a3,3,0,0,1,3,3v7.51a3,3,0,0,1-3,3h-3a3,3,0,0,1-3-3V53.83a3,3,0,0,1,3-3Zm0-1.5,1.5-3h1.5l-1.5,3Zm0,4.49v7.51a1.5,1.5,0,0,0,3,0V53.83a1.42,1.42,0,0,0-.45-1.05,1.5,1.5,0,0,0-2.12,0A1.43,1.43,0,0,0,167.26,53.83Z"/><path class="cls-4" d="M176.26,64.34V50.84h.68l8.32,7.5v-7.5h1.5v13.5h-.69l-8.31-7.5v7.5Z"/><path class="cls-4" d="M191.25,64.34V50.84h3v13.5Z"/><path class="cls-4" d="M207.76,61.34q-.2,3-3,3h-3a3,3,0,0,1-3-3V53.83a2.92,2.92,0,0,1,.87-2.1,2.85,2.85,0,0,1,2.13-.89h3q2.83,0,3,3h-1.5q-.18-1.49-1.49-1.49h-1.5a1.45,1.45,0,0,0-1.06.44,1.43,1.43,0,0,0-.44,1.05v7.51a1.51,1.51,0,0,0,1.5,1.49h1.5q1.32,0,1.49-1.49Z"/><path class="cls-4" d="M210.75,64.34V53.83a3,3,0,0,1,3-3h3a3,3,0,0,1,3,3v10.5h-3v-6h-3v6Zm3-7.5h3v-3a1.42,1.42,0,0,0-.45-1.05,1.5,1.5,0,0,0-2.12,0,1.43,1.43,0,0,0-.44,1.05Z"/></g></svg>