<svg xmlns="http://www.w3.org/2000/svg" viewBox="0 0 258 100"><defs><style>.cls-1{fill:#181818;}.cls-2{fill:#205a86;}.cls-3{fill:#4a94d0;}.cls-4{fill:#bec8d5;}.cls-5{fill:#e6e2e0;}.cls-6{fill:#ccc4c1;}.cls-7{fill:#fff;}</style></defs><title>mpago</title><g id="Layer_5" data-name="Layer 5"><polygon class="cls-1" points="84.41 38.39 39.83 66.46 67.59 82.24 85.42 71.01 88.85 65.4 94.33 65.4 112.17 54.17 84.41 38.39 84.41 38.39"/><polygon class="cls-2" points="84.41 31.5 39.83 59.57 67.59 75.35 112.17 47.28 84.41 31.5 84.41 31.5"/><polygon class="cls-3" points="84.41 24.65 39.83 52.72 67.59 68.49 112.17 40.42 84.41 24.65 84.41 24.65"/><polygon class="cls-4" points="84.41 17.76 66.58 28.99 66.58 34.6 57.67 34.6 39.84 45.83 67.59 61.61 112.17 33.54 84.41 17.76 84.41 17.76"/><polygon class="cls-5" points="66.58 29.02 57.66 34.63 85.42 50.41 89.88 51.09 94.33 44.79 66.58 29.02 66.58 29.02"/><polygon class="cls-6" points="85.37 50.42 85.37 70.95 94.27 65.35 94.27 44.82 85.37 50.42 85.37 50.42"/><path class="cls-7" d="M134.17,53.54V40h7.5v1.5h-4.5V46h3v1.49h-3V52h4.5v1.5Z"/><path class="cls-7" d="M144.68,53.54V40h7.5v1.5h-4.5V46h3v1.49h-3v6Z"/><path class="cls-7" d="M155.18,53.54V40h7.5v1.5h-4.5V46h3v1.49h-3V52h4.5v1.5Z"/><path class="cls-7" d="M174.69,50.54q-.2,3-3,3h-3a3,3,0,0,1-3-3V43a2.92,2.92,0,0,1,.87-2.1,2.85,2.85,0,0,1,2.13-.89h3q2.83,0,3,3h-1.5q-.18-1.49-1.49-1.49h-1.5a1.45,1.45,0,0,0-1.06.44,1.43,1.43,0,0,0-.44,1.05v7.51a1.51,1.51,0,0,0,1.5,1.49h1.5q1.32,0,1.49-1.49Z"/><path class="cls-7" d="M179.17,53.54v-12h-3V40h9v1.5h-3v12Z"/><path class="cls-7" d="M188.17,53.54V40h3v13.5Z"/><path class="cls-7" d="M201.69,40h3v8.37a5.16,5.16,0,0,1-5.13,5.13h-3.87V40h3V52h1.5a1.51,1.51,0,0,0,1.5-1.49Z"/><path class="cls-7" d="M210.67,40h3a3,3,0,0,1,3,3v7.51a3,3,0,0,1-3,3h-3a3,3,0,0,1-3-3V43a3,3,0,0,1,3-3Zm0,3v7.51a1.5,1.5,0,0,0,3,0V43a1.42,1.42,0,0,0-.45-1.05,1.5,1.5,0,0,0-2.12,0A1.43,1.43,0,0,0,210.67,43Z"/></g></svg>