<svg id="Layer_1" data-name="Layer 1" xmlns="http://www.w3.org/2000/svg" viewBox="0 0 400 400"><defs><style>.cls-1{fill:#39ace2;}</style></defs><title>step</title><path class="cls-1" d="M97,184.92A97,97,0,0,0,16.86,336.59L4.12,374.82l38.23-12.74A97,97,0,1,0,97,184.92ZM62.9,288.33a6.4,6.4,0,1,1,6.4-6.4,6.4,6.4,0,0,1-6.4,6.4Zm34.11,0a6.4,6.4,0,1,1,6.4-6.4,6.4,6.4,0,0,1-6.4,6.4Zm34.11,0a6.4,6.4,0,1,1,6.4-6.4,6.4,6.4,0,0,1-6.4,6.4Zm0,0"/><path class="cls-1" d="M399.6,234a13.05,13.05,0,0,1-4,11.43l-38,37.72a21.42,21.42,0,0,1-6.71,4.86,27.78,27.78,0,0,1-8.14,2.57q-.29,0-1.72.14t-3.71.14A131.87,131.87,0,0,1,319.73,289q-12.15-1.86-29.72-9.14T250.16,258q-22.29-14.57-47.43-40a313.27,313.27,0,0,1-33.15-37.72A268.64,268.64,0,0,1,148.43,147a179,179,0,0,1-12-27.72A147,147,0,0,1,131,97.88a70.64,70.64,0,0,1-1.14-14.14q.28-5.14.28-5.72a27.76,27.76,0,0,1,2.57-8.14,21.39,21.39,0,0,1,4.86-6.71l38-38a12.59,12.59,0,0,1,9.14-4,10.65,10.65,0,0,1,6.57,2.14,19.88,19.88,0,0,1,4.86,5.29l30.57,58a13.91,13.91,0,0,1,1.43,10,17.79,17.79,0,0,1-4.86,9.14l-14,14a4.78,4.78,0,0,0-1,1.86,7.08,7.08,0,0,0-.43,2.14A51.53,51.53,0,0,0,213,137.45a126,126,0,0,0,10.57,16.72q7.14,9.86,20.29,22.72a189.13,189.13,0,0,0,22.86,20.43A131.94,131.94,0,0,0,283.44,208a44.56,44.56,0,0,0,10.29,4.14l3.57.71a6.84,6.84,0,0,0,1.86-.43,4.74,4.74,0,0,0,1.86-1l16.29-16.57a17.51,17.51,0,0,1,12-4.57A14.94,14.94,0,0,1,337,192h.29l55.15,32.58q6,3.72,7.15,9.43Zm0,0"/></svg>