<svg id="Layer_1" data-name="Layer 1" xmlns="http://www.w3.org/2000/svg" viewBox="0 0 400 400"><defs><style>.cls-1{fill:#39ace2;}</style></defs><title>step</title><path class="cls-1" d="M348.53,83.64h-7.77V71.3a5.44,5.44,0,0,0-5.43-5.43H304.89a5.44,5.44,0,0,0-5.43,5.43V83.64h-27V69.86a38.26,38.26,0,0,0-38.21-38.22h-68.5a38.26,38.26,0,0,0-38.21,38.22V83.64h-27V71.3a5.44,5.44,0,0,0-5.43-5.43H64.68a5.44,5.44,0,0,0-5.43,5.43V83.64H51.47A51.47,51.47,0,0,0,0,135.11V316.53A51.46,51.46,0,0,0,51.47,368H348.53A51.46,51.46,0,0,0,400,316.53V135.11a51.47,51.47,0,0,0-51.47-51.47ZM149.28,69.86a16.5,16.5,0,0,1,16.47-16.48h68.5a16.5,16.5,0,0,1,16.48,16.48V83.64H149.28ZM200,318.53a92.7,92.7,0,1,1,92.7-92.71A92.71,92.71,0,0,1,200,318.53Zm69.59-69.94a5.42,5.42,0,0,1-5.42,5.45l-35.9,0V290a5.44,5.44,0,0,1-5.43,5.43H177.17a5.43,5.43,0,0,1-5.43-5.43V254.12l-35.86,0a5.44,5.44,0,0,1-5.43-5.42l0-45.67a5.44,5.44,0,0,1,5.43-5.45l35.9,0v-35.9a5.43,5.43,0,0,1,5.43-5.43h45.67a5.44,5.44,0,0,1,5.43,5.43v35.85l35.85,0a5.43,5.43,0,0,1,5.43,5.42Zm0,0"/></svg>