<svg id="Layer_1" data-name="Layer 1" xmlns="http://www.w3.org/2000/svg" viewBox="0 0 400 400"><defs><style>.cls-1{fill:#39ace2;}</style></defs><title>step</title><path class="cls-1" d="M314.57,102.9a5.34,5.34,0,0,0,2.2-10.21l-204-90.46A24.64,24.64,0,0,0,80.18,14.72L8.74,174.91a24.64,24.64,0,0,0,12.49,32.58l41.15,17.8a7.84,7.84,0,0,0,11-7.1v-68A47.21,47.21,0,0,1,120.59,103h194Zm0,0"/><path class="cls-1" d="M368,125.11H120.51a25,25,0,0,0-25,25v174.8a25,25,0,0,0,25,25h33.23a91.05,91.05,0,0,1-1.22-14.94,94.49,94.49,0,0,1,1.55-16.74H127.29V234.51h234v83.6H334.41A94.73,94.73,0,0,1,336,334.85a90.61,90.61,0,0,1-1.23,14.94H368a25,25,0,0,0,25-25V150.09a25,25,0,0,0-25-25ZM361.27,183h-234V156.78h234Zm0,0"/><path class="cls-1" d="M244.28,270.68a64.17,64.17,0,1,0,64.17,64.17,64.18,64.18,0,0,0-64.17-64.17Zm18.45,89.48A20.28,20.28,0,0,1,252,367c-1.88.49-2.7,1.47-2.61,3.43s0,3.76,0,5.71a2.31,2.31,0,0,1-2.53,2.62q-3.06.12-6.12,0c-1.8,0-2.61-1.06-2.61-2.78v-4.16c0-3-.16-3.19-3.11-3.68a38.35,38.35,0,0,1-10.86-3.1c-2.69-1.31-3-2-2.2-4.82.57-2.12,1.14-4.25,1.79-6.29.73-2.45,1.39-2.69,3.68-1.55A35,35,0,0,0,239.55,356a14.64,14.64,0,0,0,7.92-1.06c4.74-2,5.47-7.51,1.47-10.77a16.58,16.58,0,0,0-4.49-2.61c-4.17-1.8-8.49-3.19-12.33-5.55-6.37-3.76-10.37-9-9.88-16.74.49-8.74,5.47-14.12,13.47-17.07,3.26-1.22,3.35-1.14,3.35-4.57v-3.51c.08-2.62.49-3,3.1-3.1h2.37c5.55,0,5.55,0,5.55,5.55,0,3.92,0,3.92,3.92,4.49a35.5,35.5,0,0,1,8.57,2.53,2.46,2.46,0,0,1,1.63,3.34c-.65,2.37-1.31,4.82-2.12,7.1s-1.47,2.53-3.59,1.55a27,27,0,0,0-13.55-2.7,10.88,10.88,0,0,0-3.59.74c-4.08,1.79-4.81,6.37-1.3,9.14a26.07,26.07,0,0,0,5.88,3.35,90.93,90.93,0,0,1,10.78,4.9c10.78,6,13.8,19.76,6,29.14Zm0,0"/></svg>