<svg id="Layer_1" data-name="Layer 1" xmlns="http://www.w3.org/2000/svg" viewBox="0 0 400 400"><defs><style>.cls-1{fill:#39ace2;}</style></defs><title>step</title><path class="cls-1" d="M50.36-.54H30.18A30.28,30.28,0,0,0,0,29.67V49.85a10.09,10.09,0,1,0,20.18,0V29.67a10,10,0,0,1,10-10H50.36a10.09,10.09,0,1,0,0-20.18Zm241.88,0H272.12a10.09,10.09,0,1,0,0,20.18h20.12a10.08,10.08,0,0,1,10.09,10V49.85a10.09,10.09,0,1,0,20.18,0V29.67A30.3,30.3,0,0,0,292.24-.54Zm20.18,262.06a10.06,10.06,0,0,0-10.09,10.09v20.12a10.1,10.1,0,0,1-10.09,10.09H272.12a10.09,10.09,0,1,0,0,20.18h20.12a30.32,30.32,0,0,0,30.27-30.27V271.61a10.07,10.07,0,0,0-10.09-10.09ZM50.36,301.82H30.18a10.05,10.05,0,0,1-10-10.09V271.61a10.09,10.09,0,0,0-20.18,0v20.12A30.3,30.3,0,0,0,30.18,322H50.36a10.09,10.09,0,1,0,0-20.18ZM10.06,201a10.11,10.11,0,0,0,10.09-10.09V130.46a10.09,10.09,0,0,0-20.18,0v60.48A10.1,10.1,0,0,0,10.06,201Zm302.36-80.6a10.05,10.05,0,0,0-10.09,10v60.48a10.09,10.09,0,1,0,20.18,0V130.46a10.06,10.06,0,0,0-10.09-10Zm-121-121H131a10.09,10.09,0,0,0,0,20.18h60.48a10.09,10.09,0,0,0,0-20.18Zm0,302.36H131A10.09,10.09,0,0,0,131,322h60.48a10.09,10.09,0,0,0,0-20.18Zm0,0"/><path class="cls-1" d="M398.17,265.92c-5-29.6-26.92-32.23-34.67-32.23a21.86,21.86,0,0,0-2.62.13c-6.67-13.36-16.67-16.7-25-16.7a36.85,36.85,0,0,0-15,3.34c-6.68-13.36-16.91-16.7-25.42-16.7a38.18,38.18,0,0,0-15.28,3.33V171.76c0-13.41-10.06-20.12-20.12-20.12s-20.12,6.7-20.12,20.12v88.78c-46.42,11.33-4.12,81,9.29,102v25.73c0,5.67,5.64,10.83,11.32,10.83H366.74c5.68,0,9.31-5.16,9.31-10.83V363.84c24.76-38.66,26.38-72.52,22.12-97.92Zm0,0"/></svg>