<svg id="Layer_1" data-name="Layer 1" xmlns="http://www.w3.org/2000/svg" viewBox="0 0 400 400"><defs><style>.cls-1{fill:#39ace2;}</style></defs><title>step</title><path class="cls-1" d="M116.73,81h2.6V53.91H78.51A13.91,13.91,0,0,0,64.58,67.83V386.07A13.91,13.91,0,0,0,78.51,400h243a13.91,13.91,0,0,0,13.93-13.93V67.83a13.91,13.91,0,0,0-13.93-13.93H280.72V81h2.6a9.31,9.31,0,0,1,9.29,9.29V215H266.7L243.81,152a7,7,0,0,0-12.82-.6l-40.07,84.32-26-46.48a7,7,0,0,0-12.16,0l-14.35,25.86H107.49V90.26A9.21,9.21,0,0,1,116.73,81Zm30.78,156.52a7,7,0,0,0,6.08-3.58l5.29-9.52L186,272.83a7,7,0,0,0,12.35-.42l37-77.91,13.93,38.4a7,7,0,0,0,6.55,4.6h36.77v94.58a9.31,9.31,0,0,1-9.29,9.29H116.73a9.31,9.31,0,0,1-9.29-9.29V237.49Zm0,0"/><path class="cls-1" d="M136.23,45.08a14.73,14.73,0,0,0-.61,4.09V78a13.91,13.91,0,0,0,13.93,13.93h101A13.91,13.91,0,0,0,264.47,78V49.17a14.71,14.71,0,0,0-.6-4.09,14,14,0,0,0-13.33-9.84H232.8c0-.79.09-1.53.09-2.32a34.23,34.23,0,0,0-.51-5.8A34.6,34.6,0,0,0,229.83,19a32.87,32.87,0,0,0-59.57,0,30.7,30.7,0,0,0-2.55,8.13,34.21,34.21,0,0,0-.51,5.8c0,.79,0,1.53.09,2.32H149.55a13.9,13.9,0,0,0-13.32,9.89Zm50-12.21a13.44,13.44,0,0,1,1.3-5.8,13.8,13.8,0,0,1,25.07,0,13.48,13.48,0,0,1,1.3,5.8,18.82,18.82,0,0,1-.19,2.32,13.74,13.74,0,0,1-7.1,9.84A13.55,13.55,0,0,1,200,46.66,14.12,14.12,0,0,1,193.48,45a14,14,0,0,1-7.1-9.84,18.82,18.82,0,0,1-.19-2.32Zm0,0"/></svg>