<svg id="Layer_1" data-name="Layer 1" xmlns="http://www.w3.org/2000/svg" xmlns:xlink="http://www.w3.org/1999/xlink" viewBox="0 0 152.43 61.41"><defs><style>.cls-1{fill:none;}.cls-2{clip-path:url(#clip-path);}.cls-3{fill:#e00639;}.cls-4{fill:#fff;}</style><clipPath id="clip-path"><rect class="cls-1" width="65.34" height="61.58"/></clipPath></defs><title>transfer</title><g class="cls-2"><path class="cls-3" d="M60,0H5.34A5.34,5.34,0,0,0,0,5.34V42.43a5.35,5.35,0,0,0,5.35,5.34H23.71v7.16H20.63a3,3,0,0,0-2.73,1.65,3.27,3.27,0,0,0,2.91,4.83H44.88a3,3,0,0,0,2.73-1.65,3.27,3.27,0,0,0-2.91-4.83H41.8V47.77H60a5.34,5.34,0,0,0,5.34-5.34V5.34A5.33,5.33,0,0,0,60,0ZM52.2,44.49A1.49,1.49,0,1,1,53.68,43a1.48,1.48,0,0,1-1.49,1.49Zm6.57.36A1.84,1.84,0,1,1,60.6,43a1.84,1.84,0,0,1-1.84,1.84Zm2.14-5.44H4.26V5.4a1,1,0,0,1,1-1H59.94a1,1,0,0,1,1,1v34ZM61,39.3"/></g><path class="cls-4" d="M35.11,22.37l2.41-1.46a.62.62,0,0,0-.12-1.11L26.35,16a.62.62,0,0,0-.79.79l3.85,11a.62.62,0,0,0,1.11.12L32,25.5,36.49,30a.62.62,0,0,0,.87,0l2.26-2.26a.62.62,0,0,0,0-.87Zm0,0"/><path class="cls-4" d="M73.3,28.54V21.88H71.63V21h5v.83H75v6.67Z"/><path class="cls-4" d="M77.46,28.54V21H80.8a1.59,1.59,0,0,1,1.17.49,1.61,1.61,0,0,1,.49,1.17v.45a1.79,1.79,0,0,1-.38,1.07,1.49,1.49,0,0,1-1.28.51h.83a.8.8,0,0,1,.58.24.81.81,0,0,1,.24.59v2.95H80.8V26a.8.8,0,0,0-.24-.58.81.81,0,0,0-.59-.24h-.83v3.33Zm1.67-4.17H80a.81.81,0,0,0,.59-.24.8.8,0,0,0,.24-.58v-.83a.84.84,0,0,0-.84-.84h-.83Z"/><path class="cls-4" d="M84.13,28.54V22.72A1.68,1.68,0,0,1,85.8,21h1.67a1.59,1.59,0,0,1,1.17.49,1.61,1.61,0,0,1,.49,1.17v5.83H87.47V25.21H85.8v3.33Zm1.67-4.17h1.67V22.72a.84.84,0,0,0-.84-.84.8.8,0,0,0-.58.24.81.81,0,0,0-.24.59Z"/><path class="cls-4" d="M90.79,28.54V21h.39l4.61,4.17V21h.84v7.5h-.38l-4.62-4.17v4.17Z"/><path class="cls-4" d="M102.46,22.72h-.83q-.11-.84-.79-.84a.92.92,0,0,0-.66.21.83.83,0,0,0-.22.63.9.9,0,0,0,.24.59l1.77,2a1.75,1.75,0,0,1,.49,1.18v.41a1.68,1.68,0,0,1-1.67,1.67H100a1.48,1.48,0,0,1-1.67-1.67h.84V27a.59.59,0,0,0,.26.52,1,1,0,0,0,.57.18.82.82,0,0,0,.63-.21.9.9,0,0,0,.19-.62.87.87,0,0,0-.24-.59l-1.77-2a1.72,1.72,0,0,1-.49-1.18v-.41A1.68,1.68,0,0,1,100,21h.83Q102.36,21,102.46,22.72Z"/><path class="cls-4" d="M104.12,28.54V21h4.17v.83h-2.5v2.5h1.67v.84h-1.67v3.33Z"/><path class="cls-4" d="M109.95,28.54V21h4.17v.83h-2.5v2.5h1.67v.84h-1.67v2.5h2.5v.83Z"/><path class="cls-4" d="M115.77,28.54V21h3.34a1.59,1.59,0,0,1,1.17.49,1.61,1.61,0,0,1,.49,1.17v.45a1.79,1.79,0,0,1-.38,1.07,1.49,1.49,0,0,1-1.28.51h.83a.8.8,0,0,1,.58.24.81.81,0,0,1,.24.59v2.95h-1.66V26a.8.8,0,0,0-.24-.58.81.81,0,0,0-.59-.24h-.83v3.33Zm1.67-4.17h.83a.81.81,0,0,0,.59-.24.8.8,0,0,0,.24-.58v-.83a.84.84,0,0,0-.84-.84h-.83Z"/><path class="cls-4" d="M122.44,28.54V21h4.17v.83h-2.5v2.5h1.67v.84h-1.67v2.5h2.5v.83Z"/><path class="cls-4" d="M128.27,28.54V21h.39l4.61,4.17V21h.84v7.5h-.38l-4.62-4.17v4.17Z"/><path class="cls-4" d="M140.76,26.87q-.1,1.67-1.66,1.67h-1.67a1.68,1.68,0,0,1-1.67-1.67V22.72a1.62,1.62,0,0,1,.48-1.17,1.6,1.6,0,0,1,1.18-.49h1.67q1.57,0,1.66,1.67h-.83q-.1-.84-.83-.84h-.84a.8.8,0,0,0-.58.24.81.81,0,0,0-.24.59v4.16a.81.81,0,0,0,.24.59.79.79,0,0,0,.58.25h.84q.74,0,.83-.84Z"/><path class="cls-4" d="M143.27,28.54V21h1.66v7.5Z"/><path class="cls-4" d="M147.43,28.54V22.72A1.68,1.68,0,0,1,149.1,21h1.67a1.59,1.59,0,0,1,1.17.49,1.61,1.61,0,0,1,.49,1.17v5.83h-1.66V25.21H149.1v3.33Zm1.67-4.17h1.67V22.72a.84.84,0,0,0-.84-.84.8.8,0,0,0-.58.24.81.81,0,0,0-.24.59Z"/><path class="cls-4" d="M72.46,40.54V33h4.17v.83h-2.5v2.5H75.8v.84H74.13v2.5h2.5v.83Z"/><path class="cls-4" d="M78.29,40.54V33H80v6.67h2.5v.83Z"/><path class="cls-4" d="M84.12,40.54V33h4.17v.83h-2.5v2.5h1.67v.84H85.79v2.5h2.5v.83Z"/><path class="cls-4" d="M94.94,38.87q-.1,1.67-1.66,1.67H91.61a1.68,1.68,0,0,1-1.67-1.67V34.71a1.62,1.62,0,0,1,.48-1.17A1.6,1.6,0,0,1,91.61,33h1.67q1.57,0,1.66,1.67h-.83q-.1-.84-.83-.84h-.84a.8.8,0,0,0-.58.24.81.81,0,0,0-.24.59v4.16a.81.81,0,0,0,.24.59.79.79,0,0,0,.58.25h.84q.74,0,.83-.84Z"/><path class="cls-4" d="M97.45,40.54V33.87H95.78V33h5v.83H99.11v6.67Z"/><path class="cls-4" d="M101.61,40.54V33h3.34a1.59,1.59,0,0,1,1.17.49,1.61,1.61,0,0,1,.49,1.17v.45a1.79,1.79,0,0,1-.38,1.07,1.49,1.49,0,0,1-1.28.51h.83a.8.8,0,0,1,.58.24.81.81,0,0,1,.24.59v2.95h-1.66V38a.8.8,0,0,0-.24-.58.81.81,0,0,0-.59-.24h-.83v3.33Zm1.67-4.17h.83a.81.81,0,0,0,.59-.24.8.8,0,0,0,.24-.58v-.83a.84.84,0,0,0-.84-.84h-.83Z"/><path class="cls-4" d="M109.95,33h1.67a1.59,1.59,0,0,1,1.17.49,1.61,1.61,0,0,1,.49,1.17v4.16a1.61,1.61,0,0,1-.49,1.17,1.59,1.59,0,0,1-1.17.49h-1.67a1.68,1.68,0,0,1-1.67-1.67V34.71A1.68,1.68,0,0,1,109.95,33Zm0-.83.83-1.67h.84l-.84,1.67Zm0,2.5v4.16a.81.81,0,0,0,.24.59.79.79,0,0,0,.58.25.8.8,0,0,0,.59-.25.82.82,0,0,0,.24-.59V34.71a.84.84,0,0,0-.84-.84.8.8,0,0,0-.58.24A.81.81,0,0,0,109.95,34.71Z"/><path class="cls-4" d="M114.94,40.54V33h.39l4.61,4.17V33h.84v7.5h-.38l-4.62-4.17v4.17Z"/><path class="cls-4" d="M123.28,40.54V33h1.66v7.5Z"/><path class="cls-4" d="M132.44,38.87q-.1,1.67-1.66,1.67h-1.67a1.68,1.68,0,0,1-1.67-1.67V34.71a1.62,1.62,0,0,1,.48-1.17,1.6,1.6,0,0,1,1.18-.49h1.67q1.57,0,1.66,1.67h-.83q-.1-.84-.83-.84h-.84a.8.8,0,0,0-.58.24.81.81,0,0,0-.24.59v4.16a.81.81,0,0,0,.24.59.79.79,0,0,0,.58.25h.84q.74,0,.83-.84Z"/><path class="cls-4" d="M134.1,40.54V34.71A1.68,1.68,0,0,1,135.77,33h1.67a1.59,1.59,0,0,1,1.17.49,1.61,1.61,0,0,1,.49,1.17v5.83h-1.66V37.21h-1.67v3.33Zm1.67-4.17h1.67V34.71a.84.84,0,0,0-.84-.84.8.8,0,0,0-.58.24.81.81,0,0,0-.24.59Z"/></svg>